<?xml version="1.0" encoding="UTF-8" standalone="no"?>
<svg
   xmlns:dc="http://purl.org/dc/elements/1.1/"
   xmlns:cc="http://creativecommons.org/ns#"
   xmlns:rdf="http://www.w3.org/1999/02/22-rdf-syntax-ns#"
   xmlns:svg="http://www.w3.org/2000/svg"
   xmlns="http://www.w3.org/2000/svg"
   viewBox="0 0 481.33334 494.66666"
   height="494.66666"
   width="481.33334"
   xml:space="preserve"
   id="svg2"
   version="1.1"><metadata
     id="metadata8"><rdf:RDF><cc:Work
         rdf:about=""><dc:format>image/svg+xml</dc:format><dc:type
           rdf:resource="http://purl.org/dc/dcmitype/StillImage" /></cc:Work></rdf:RDF></metadata><defs
     id="defs6" /><g
     transform="matrix(1.3333333,0,0,-1.3333333,0,494.66667)"
     id="g10"><g
       transform="scale(0.1)"
       id="g12"><path
         id="path14"
         style="fill:#0994dc;fill-opacity:1;fill-rule:evenodd;stroke:none"
         d="m 1792.94,3109.68 c 717.97,0 1303.62,-584.81 1303.62,-1302.02 0,-717.06 -584.1,-1303.453 -1303.62,-1304.226 C 1073.41,502.742 489.309,1090.6 489.309,1807.66 c 0,717.21 585.651,1302.02 1303.631,1302.02" /><path
         id="path16"
         style="fill:#632124;fill-opacity:1;fill-rule:nonzero;stroke:none"
         d="m 1452.81,545.277 c -16.51,4.582 -26.82,7.453 -33.22,9.235 -1.48,0.414 -2.75,0.773 -3.84,1.078 -1.68,0.246 -3.55,0.687 -5.41,1.348 -1.94,0.472 -4.06,1 -6.4,1.593 -1.51,0.383 -2.96,0.973 -4.37,1.727 -10.25,3.347 -13.96,5.773 -13.22,6.851 -1.79,1.008 -1.34,1.286 2.14,0.614 0.67,0.023 1.48,-0.008 2.42,-0.098 -2.23,2.656 -4.25,5.699 -6.02,8.926 -6.52,11.883 -9.9,26.504 -8.91,32.344 0.41,2.371 5.51,17.535 16.05,29.222 5.9,6.547 13.52,12.098 23.03,13.957 12.15,2.379 37.49,12.715 50.51,18.02 0.84,0.344 0.27,0.117 4.22,1.711 l 0.18,0.066 c 4.8,1.492 7.8,7.234 10.61,12.613 3.11,5.942 6.03,11.516 11.53,12.641 5.5,1.129 9.87,-0.328 14.03,-1.719 2.78,-0.926 5.46,-1.82 8.09,-1.601 4.88,0.398 11.76,9.269 18.26,17.644 7.07,9.106 13.75,17.699 19.58,16.606 37.67,-7.102 45.64,-2.469 100.38,29.371 13.36,7.769 29.45,17.129 49.05,28.121 6.95,4.422 25.21,-10.305 43.91,-25.383 14.64,-11.801 29.56,-23.844 37.93,-26.461 31.92,1.449 39.85,13.02 46.8,23.172 10.66,15.59 19.28,28.176 90.6,4.512 14.52,-0.457 29.87,4.551 46,9.812 21.89,7.145 45.19,14.75 70.6,10.41 0.01,0 0.01,0 0.01,0 h -0.01 c 0.01,0 0.01,0 0.01,0 2.07,-0.355 7.08,-3.129 13.86,-6.871 12.28,-6.781 30.61,-16.906 44.77,-20.644 7.66,-2.02 11.87,-9.094 16.2,-16.371 3.25,-5.457 6.59,-11.055 11.28,-13.989 7.2,-4.492 15.43,-3.39 22.41,-2.457 h 0.01 c 5,0.668 9.43,1.262 13.07,-0.07 10.42,-3.805 18.05,-7.16 25.79,-10.562 h -0.01 c 8.35,-3.668 16.83,-7.399 29.14,-11.817 6.74,-2.418 13.04,-7.601 18.45,-13.48 8.67,-9.418 15.16,-20.758 17.29,-25.075 6.37,-12.875 6.34,-26.871 -2,-41.945 -7.5,-13.535 -21.75,-27.941 -44.19,-43.176 l -0.32,-0.175 c -71.42,-34.622 -218.55,-64.43 -376.99,-70.688 -128.27,-5.066 -264.08,5.285 -373.3,40.988 z m -52.71,20.5 c 3.17,-0.879 6.74,-2.078 10.57,-3.617 0.26,-0.07 0.51,-0.14 0.77,-0.211 0.75,-0.203 3.44,-0.953 9.48,-2.633 6.41,-1.781 16.75,-4.66 33.31,-9.257 l 0.11,-0.032 c 108.58,-35.5 243.79,-45.785 371.58,-40.738 157.65,6.227 303.85,35.766 374.79,70.074 21.71,14.754 35.42,28.547 42.52,41.371 7.47,13.5 7.54,25.95 1.91,37.332 -2.03,4.11 -8.21,14.903 -16.49,23.903 -4.93,5.355 -10.58,10.043 -16.46,12.152 -12.31,4.422 -20.96,8.223 -29.45,11.953 h -0.01 c -7.71,3.391 -15.31,6.727 -25.48,10.446 -2.5,0.914 -6.36,0.394 -10.72,-0.184 0,0 -0.01,0 -0.01,0 h 0.01 c 0,0 -0.01,0 -0.01,0 -7.79,-1.043 -16.98,-2.273 -25.69,3.16 -5.74,3.582 -9.39,9.703 -12.94,15.672 -3.81,6.391 -7.51,12.605 -13.18,14.102 -14.78,3.902 -33.42,14.195 -45.91,21.093 -6.36,3.516 -11.08,6.121 -12.28,6.325 v 0 c -24.21,4.136 -46.91,-3.274 -68.24,-10.235 -16.7,-5.449 -32.59,-10.637 -48.05,-10.058 l -0.69,0.125 c -68.1,22.648 -75.78,11.437 -85.28,-2.457 -7.65,-11.168 -16.36,-23.903 -51.12,-25.379 l -0.78,0.097 c -9.25,2.629 -24.81,15.188 -40.07,27.492 -17.41,14.043 -34.41,27.75 -38.11,25.082 l -0.23,-0.156 c -19.93,-11.176 -35.81,-20.418 -49,-28.09 -56.13,-32.652 -64.31,-37.402 -103.8,-29.957 -2.85,0.532 -8.61,-6.89 -14.71,-14.746 -7.17,-9.238 -14.76,-19.023 -21.8,-19.601 -3.57,-0.297 -6.76,0.769 -10.08,1.875 -3.54,1.179 -7.27,2.425 -11.45,1.566 -3.16,-0.648 -5.55,-5.211 -8.09,-10.07 -3.27,-6.246 -6.77,-12.918 -13.5,-15.047 0.02,0.008 0.04,0.012 0.05,0.019 l -0.07,-0.027 c -0.01,-0.008 -0.03,-0.012 -0.04,-0.016 l 0.04,0.016 c -0.01,-0.008 -0.03,-0.012 -0.04,-0.016 -1.42,-0.57 -1.75,-0.718 -4.01,-1.64 -13.17,-5.371 -38.8,-15.82 -51.43,-18.293 -8.29,-1.621 -15.02,-6.555 -20.28,-12.395 -9.79,-10.863 -14.47,-24.589 -14.83,-26.722 -0.86,-5.02 2.33,-18.121 8.36,-29.102 2.99,-5.449 6.67,-10.293 10.83,-13.176" /><path
         id="path18"
         style="fill:#632124;fill-opacity:1;fill-rule:nonzero;stroke:none"
         d="m 2606.2,2019.63 c -0.37,-0.36 -0.66,-0.63 -0.86,-0.83 -2.61,-2.5 -3.87,-3.71 -7.04,-4.64 -2.82,-0.83 -7.12,-1.4 -15.46,-2.48 v 0 c -1.84,-0.23 -3.94,-0.52 -6.34,-0.83 0.39,-2.85 -0.29,-5.33 -0.91,-7.53 -0.46,-1.64 -0.87,-3.11 -0.63,-4.29 4.69,-23.1 19.99,-23.46 33.09,-20.8 3.01,0.61 5.86,1.36 8.47,2.05 v 0 c 1.34,0.35 2.6,0.69 3.91,1.01 2.08,0.5 3.52,1.8 4.39,3.62 1.11,2.34 1.33,5.55 0.81,9.07 -0.53,3.62 -1.83,7.55 -3.73,11.23 -3.55,6.86 -9.16,12.86 -15.7,14.42 z m -1.06,1.96 0.4,0.38 0.55,-0.11 c 7.47,-1.48 13.81,-8.1 17.72,-15.66 2.01,-3.91 3.39,-8.07 3.96,-11.91 0.57,-3.93 0.3,-7.56 -1.01,-10.31 -1.14,-2.39 -3.05,-4.11 -5.83,-4.78 -1.11,-0.27 -2.47,-0.63 -3.87,-1 v 0 0 0 c -2.67,-0.71 -5.6,-1.48 -8.59,-2.09 -14.09,-2.86 -30.56,-2.45 -35.63,22.5 -0.33,1.67 0.15,3.38 0.68,5.29 0.63,2.24 1.34,4.8 0.67,7.62 l -0.28,1.16 1.19,0.15 c 2.72,0.36 5.21,0.69 7.47,0.98 v 0 0 0 c 8.22,1.07 12.46,1.62 15.13,2.41 2.66,0.79 3.8,1.88 6.14,4.13 0.51,0.49 0.94,0.9 1.3,1.24 z m 82.99,-223.54 c 3.93,14 4.58,22.94 2.53,28.66 -2.01,5.63 -6.77,8.19 -13.6,9.55 v 0 0 0 c -3.72,0.74 -3.6,0.89 -5,-0.81 -1.8,-2.2 -5.51,-6.71 -16.84,-15.03 1.06,-4.46 1.74,-8.01 2.26,-10.79 0.98,-5.13 1.43,-7.51 2.88,-8.51 1.31,-0.9 3.78,-1.03 8.36,-1.28 4.33,-0.23 10.48,-0.57 19.41,-1.79 z m 1.82,-1.49 -0.27,-0.9 -0.92,0.13 c -9.28,1.31 -15.69,1.66 -20.15,1.9 -4.97,0.26 -7.65,0.41 -9.47,1.66 -2.18,1.5 -2.69,4.16 -3.77,9.88 -0.54,2.87 -1.25,6.56 -2.41,11.39 l -0.16,0.69 0.58,0.43 c 11.6,8.46 15.26,12.91 17.03,15.07 2.3,2.8 2.1,2.55 7.07,1.57 v 0 c 7.58,-1.52 12.89,-4.43 15.21,-10.94 2.24,-6.28 1.55,-15.89 -2.74,-30.88 z m -56.84,118.46 c 4.13,14.47 7.4,27.87 7.89,38 0.47,9.78 -1.67,16.4 -8.21,17.71 -3.17,0.63 -3.29,0.43 -4.36,-1.43 h -0.01 c -1.33,-2.3 -3.74,-6.48 -11.1,-13.37 v 0.01 c -0.99,-0.93 -6.74,-1.55 -13.44,-2.26 -3.18,-0.34 -6.61,-0.71 -9.77,-1.12 -4.75,-0.61 -8.96,-1.33 -11,-2.19 -0.62,-0.26 -0.32,-0.69 1.56,-1.37 l 0.78,-0.29 -0.06,-0.82 c -0.97,-11.62 7.01,-13.74 14.02,-15.6 3.9,-1.04 7.53,-2.01 9.64,-4.35 4.8,-5.37 3.9,-10.79 3.16,-15.22 -0.15,-0.92 -0.29,-1.81 -0.37,-2.6 -0.26,-2.79 0.47,-4.78 5.83,-5.29 l -0.02,0.01 c 2.65,-0.2 7.35,3.78 10.9,6.78 1.84,1.56 3.41,2.89 4.56,3.4 z m 1.91,-1.15 -0.26,-0.9 -0.92,0.13 c -0.2,0.03 -1.85,-1.37 -3.9,-3.12 -3.85,-3.25 -8.94,-7.57 -12.45,-7.29 l -0.02,0.01 c -7.19,0.68 -8.15,3.56 -7.77,7.62 0.09,0.88 0.24,1.79 0.4,2.75 0.65,3.96 1.45,8.82 -2.66,13.43 -1.69,1.88 -5.01,2.76 -8.57,3.71 -7.68,2.04 -16.39,4.35 -15.7,17.04 -4.84,1.92 -4.4,3.61 -0.9,5.09 2.25,0.96 6.65,1.72 11.57,2.36 3.2,0.41 6.62,0.78 9.81,1.12 6.32,0.67 11.74,1.25 12.19,1.68 v 0.01 c 7.15,6.69 9.46,10.68 10.72,12.87 v 0 c 1.77,3.07 1.96,3.4 6.64,2.46 7.89,-1.57 10.48,-9 9.95,-19.93 -0.5,-10.44 -3.88,-24.21 -8.13,-39.04 z m 251.72,-197.19 c 3.19,10.95 -3.38,16.55 -12.65,19.25 -7.76,2.25 -17.41,2.54 -25.11,2.2 -4.11,-0.18 -7.66,-0.29 -9.92,-0.35 l -0.05,-1.11 c -3.16,-0.32 -4.62,0.13 -4.69,0.82 -0.01,0.12 0.24,0.29 0.73,0.49 -5.3,2.84 -8.29,9.12 -11.37,15.59 -1.79,3.73 -3.61,7.53 -5.89,10.66 -6.78,9.29 -18.15,12.91 -47.18,-8.12 0.23,-2.22 -0.94,-3.95 -2.72,-5.03 -0.83,-0.51 -1.81,-0.87 -2.82,-1.06 -1,-0.19 -2.07,-0.21 -3.07,-0.05 -2.55,0.41 -4.79,1.97 -5.29,4.98 v 0 c -2.78,16.73 -6.57,25.74 -10.63,30.78 -3.94,4.89 -8.22,6.02 -12.06,6.96 -3.71,0.91 -7,1.64 -9.76,-0.95 -3.01,-2.83 -5.69,-9.42 -8.11,-23.26 -2.8,-16.05 10.8,-23.05 27.3,-31.53 12.71,-6.54 27.1,-13.96 37.35,-27 30.1,6.67 50.54,-5.66 65.85,-14.91 5.85,-3.53 10.94,-6.61 15.43,-7.91 9.52,-2.77 16.84,2.65 24.66,29.55 z m 2.07,-0.59 c -8.31,-28.55 -16.48,-34.18 -27.33,-31.02 -4.78,1.38 -9.97,4.53 -15.94,8.13 -15.11,9.12 -35.31,21.32 -64.92,14.51 l -0.67,-0.16 -0.42,0.55 c -10,13.01 -24.38,20.41 -37.07,26.94 -17.26,8.88 -31.5,16.21 -28.43,33.81 2.51,14.36 5.42,21.31 8.76,24.45 3.59,3.38 7.42,2.53 11.73,1.48 4.18,-1.02 8.84,-2.26 13.23,-7.7 4.27,-5.29 8.23,-14.62 11.08,-31.78 v -0.01 0.01 -0.01 c 0.32,-1.91 1.81,-2.93 3.51,-3.2 0.75,-0.12 1.55,-0.1 2.33,0.04 0.76,0.14 1.49,0.41 2.11,0.78 1.2,0.74 1.96,1.93 1.61,3.44 l -0.17,0.69 0.58,0.42 c 30.89,22.54 43.22,18.34 50.73,8.04 2.4,-3.29 4.26,-7.18 6.09,-11.01 3.37,-7.05 6.62,-13.88 12.79,-15.53 2.61,0.58 6.27,1.13 10.48,1.32 7.87,0.35 17.75,0.04 25.79,-2.29 10.42,-3.03 17.77,-9.39 14.13,-21.9 z m -533.77,-1.43 c -13.18,46.55 -56.22,91.34 -91.4,127.95 -15.32,15.93 -29.16,30.33 -38.44,42.69 -4.45,1 -8.59,2.19 -12.4,3.29 -7.76,2.21 -14.12,4.04 -18.19,2.95 -7.11,-1.9 -7.85,-13.33 1.61,-48.92 8.8,-8.17 17.72,-16.18 26.55,-24.1 v 0.01 c 38.12,-34.21 74.42,-66.8 95.38,-107.69 7.41,-0.45 17.91,1.17 26.12,2.44 4.54,0.7 8.39,1.29 10.77,1.38 z m 2.47,-0.83 0.42,-1.57 -1.61,0.23 c -1.62,0.22 -6.14,-0.47 -11.72,-1.33 -8.57,-1.33 -19.6,-3.03 -27.21,-2.43 l -0.6,0.04 -0.27,0.55 c -20.73,40.76 -57.05,73.37 -95.19,107.6 v 0 c -8.88,7.97 -17.85,16.03 -26.8,24.34 l -0.32,0.52 c -9.96,37.42 -8.68,49.57 -0.15,51.84 4.64,1.24 11.26,-0.66 19.33,-2.96 3.91,-1.12 8.18,-2.35 12.66,-3.34 l 0.63,-0.41 c 9.22,-12.34 23.12,-26.8 38.5,-42.81 35.71,-37.15 79.47,-82.68 92.33,-130.27 z m 126.83,22.4 c 1.73,4.54 5.13,4.92 8.87,5.33 0,0 0,0 0.01,0 h -0.01 c 0,0 0,0 0.01,0 3.99,0.44 8.47,0.94 11.08,8.38 1.71,4.87 2.74,13.67 3.8,22.86 1.44,12.37 2.96,25.43 6.46,31.11 2.91,4.73 7.62,8.28 12.09,11.64 4.4,3.31 8.55,6.43 10.15,10.16 1.61,3.75 -1.86,6.59 -5.1,9.24 -3.77,3.07 -7.29,5.95 -4.49,10.19 0.83,1.24 -2.08,3.98 -4.83,6.57 -1.61,1.51 -3.18,2.99 -4.11,4.33 -1.19,1.73 -1.41,3.25 0.23,4.38 7.91,5.48 12.94,12.29 15.42,19.37 1.77,5.04 2.26,10.23 1.6,15.17 -0.67,4.94 -2.48,9.66 -5.32,13.75 -3.7,5.34 -9.14,9.64 -16.02,12.06 -10.61,3.41 -25.1,-17.6 -40.73,-40.25 -13.89,-20.14 -28.68,-41.57 -43.02,-48.82 0.47,-3.36 -1.4,-5.03 -4.63,-5.8 -3.03,-0.72 -7.31,-0.56 -11.81,-0.4 -7.94,0.29 -16.66,0.61 -19.22,-3.87 -1.97,-3.44 1.47,-10.4 4.64,-16.83 2.82,-5.69 5.43,-11 4.24,-14.05 -1.88,-4.82 0.15,-8.04 2.17,-11.23 2.52,-3.97 5.01,-7.91 1.57,-14.45 -2.28,-4.33 -1.3,-7.02 2,-8.76 5.51,-2.9 16.99,-3.59 30.86,-4.41 6.22,-0.37 12.94,-0.77 20.07,-1.45 l -0.01,0.01 c 8.36,-0.66 14.6,-6.25 19.22,-10.39 1.95,-1.75 3.58,-3.23 4.81,-3.84 z m 1.72,-1.63 -0.26,-0.9 -0.92,0.13 c -1.93,0.27 -4.1,2.21 -6.79,4.63 -4.39,3.93 -10.32,9.25 -17.95,9.85 l -0.02,0.01 c -6.78,0.64 -13.64,1.05 -19.99,1.43 -14.13,0.83 -25.8,1.54 -31.74,4.66 -4.51,2.38 -5.9,5.97 -2.91,11.66 2.87,5.44 0.7,8.86 -1.48,12.3 -2.3,3.65 -4.63,7.33 -2.35,13.16 0.85,2.16 -1.57,7.07 -4.16,12.32 -3.42,6.92 -7.12,14.42 -4.59,18.85 3.21,5.62 12.61,5.27 21.17,4.95 4.35,-0.16 8.48,-0.31 11.23,0.35 2.21,0.52 3.44,1.68 2.87,4.06 l -0.2,0.85 0.79,0.37 c 14.07,6.63 28.95,28.2 42.93,48.46 16.1,23.34 31.03,44.99 43.15,41.08 l 0.03,-0.01 c 7.34,-2.58 13.15,-7.18 17.09,-12.88 3.04,-4.38 4.98,-9.41 5.69,-14.69 0.71,-5.27 0.19,-10.79 -1.7,-16.16 -2.62,-7.49 -7.91,-14.67 -16.23,-20.43 -0.32,-0.22 -0.13,-0.74 0.32,-1.39 0.79,-1.14 2.28,-2.55 3.81,-3.99 3.4,-3.2 6.97,-6.57 5.15,-9.32 -1.72,-2.61 1.07,-4.9 4.05,-7.34 3.86,-3.14 7.98,-6.51 5.72,-11.75 -1.82,-4.24 -6.19,-7.54 -10.84,-11.03 -4.3,-3.24 -8.84,-6.66 -11.54,-11.04 -3.25,-5.27 -4.74,-18.09 -6.15,-30.24 -1.08,-9.3 -2.12,-18.22 -3.91,-23.32 -3.06,-8.72 -8.25,-9.29 -12.88,-9.8 v 0 c -3.27,-0.36 -6.2,-0.69 -7.39,-4.83 z m -1244.42,979.88 c 1.83,2.18 3.75,3.65 5.54,5.03 3.29,2.53 6.16,4.74 7.05,10.83 0,0 0,0 0,0.01 v -0.01 c 0,0 0,0 0,0.01 0.9,6.14 -0.09,12.83 -2.04,18.23 v 0 c -2.01,5.57 -4.98,9.71 -7.83,10.27 -3.61,0.72 -4.91,-0.42 -9.43,-4.38 -2.9,-2.54 -7.04,-6.18 -13.67,-11.05 2.21,-9.61 1.43,-14.96 0.99,-18.02 -0.18,-1.25 -0.3,-2.06 -0.14,-2.38 0.28,-0.55 2.07,-0.72 6.97,-1.15 v -0.01 c 0.87,-0.08 1.84,-0.17 2.9,-0.27 l -0.02,0.01 c 2.84,-0.22 5.85,-3.26 8.06,-5.51 0.66,-0.67 1.25,-1.26 1.62,-1.61 z m 1.11,-2.05 -0.38,-0.49 -0.62,0.09 c -0.86,0.11 -1.93,1.2 -3.26,2.56 -1.97,1.99 -4.64,4.7 -6.69,4.86 h -0.01 c -1.06,0.1 -2.03,0.19 -2.9,0.27 v -0.01 c -3.48,0.31 -5.62,0.5 -6.95,0.97 0.8,-1.42 1.54,-3.02 2.29,-4.63 1.84,-3.97 3.66,-7.89 5.55,-7.47 53.18,11.97 63.24,4.93 70.54,-0.19 3.88,-2.71 6.92,-4.84 16.33,-2.7 2.7,0.61 6.19,3.71 9.92,7.02 4.82,4.28 10.05,8.92 15.25,9.73 27.59,4.29 41.2,4.44 47.91,4.52 4.26,0.04 5.27,0.06 5.4,0.82 v -0.01 c 0.06,0.39 -0.84,3 -1.97,6.27 -2.22,6.46 -5.3,15.37 -3.92,18.37 0.65,1.42 1.88,1.88 3.89,0.95 12.7,-5.82 21.07,-9.5 26.07,-8.31 4.35,1.04 6.33,6.16 6.76,17.4 -1.4,-1.39 -3.13,-2.48 -5.07,-3.28 -3.64,-1.51 -8.09,-1.98 -12.69,-1.44 -4.57,0.54 -9.33,2.09 -13.65,4.61 -5.69,3.34 -10.64,8.39 -13.42,15.13 -1.56,3.77 4.37,10.53 10.41,17.42 6.39,7.29 12.94,14.75 10.15,17.13 v 0 c -5.76,4.9 -14.12,-0.68 -21.26,-5.43 -3.54,-2.36 -6.8,-4.54 -9.52,-5.3 -4.95,-1.4 -8.56,-7.18 -13.16,-14.54 -7.3,-11.7 -17.03,-27.28 -38.93,-36.71 -4.11,-1.77 -9.21,-5.63 -14.41,-9.59 -7.23,-5.48 -14.68,-11.13 -20.55,-11.95 -4.66,-0.65 -8.93,-0.39 -12.47,-0.18 -3,0.18 -5.45,0.33 -6.98,-0.14 -0.48,-0.14 -0.96,-0.14 -1.39,0.01 v 0 c -0.7,0.24 -1.23,0.81 -1.51,1.66 -0.22,0.66 -0.31,1.51 -0.24,2.47 0.18,2.17 1.19,5.2 3.39,8.48 2.27,3.38 5.64,7.09 9.25,11.05 4.28,4.72 8.91,9.81 12.27,14.99 5.55,8.54 4.57,12.88 3.86,13.41 -2.51,1.2 -7.39,0.32 -12.89,-0.67 -6.66,-1.2 -14.2,-2.56 -20.3,-0.72 v 0 c -2.71,0.81 -3.76,3.41 -4.6,5.48 -0.25,0.66 -0.5,1.25 -0.73,1.62 -3.43,5.33 4.19,13.77 10.98,21.27 3.88,4.29 7.48,8.26 8.27,10.77 v 0 0 0 c 1.78,5.65 6.19,10.64 11.25,14.7 8.27,6.66 18.37,10.91 21.22,11.55 14.47,4.48 22.03,4.26 29.31,4.05 8.9,-0.25 17.41,-0.49 38.33,8.28 4.12,1.74 8.88,5.68 14.16,10.05 6.82,5.64 14.5,12 23.06,15.5 5.29,2.16 11.91,4.84 18.97,7.31 7.06,2.46 14.52,4.69 21.45,5.92 l 0.53,0.09 0.39,-0.36 c 54.08,-50.35 89.14,-45.93 140.72,-39.43 12.73,1.6 26.46,3.34 41.56,4.4 l 373.83,70.17 c 6.55,6.25 19.97,15.86 35.23,23.54 11.5,5.8 24.08,10.51 35.62,11.88 11.72,1.4 22.4,-0.63 29.87,-8.38 2.02,-2.09 3.8,-4.61 5.29,-7.57 2.21,-4.38 7.35,-2.72 11.37,-0.69 1.28,0.64 2.51,1.36 3.49,1.93 v 0 c 0.76,0.44 1.38,0.79 1.85,1.02 5.42,7.55 6.58,15.92 7.68,23.96 2.75,20.01 5.24,38.11 67.8,39.38 0.91,0.74 2.24,2.89 3.8,5.43 3.93,6.4 9.3,15.13 16.29,13.74 l 0.18,-0.05 c 66.1,-25.34 123.8,-51.37 171.64,-75.61 58.88,-29.83 102.84,-56.97 129.21,-76.82 43.46,-24.92 97.96,-70.64 150.58,-119.95 88.08,-82.52 170.94,-175.16 187.88,-197.19 l 0.09,-0.12 c 2.84,-4.98 4.04,-10.04 3.81,-15.13 -0.41,-9.14 -5.44,-18.31 -13.86,-27.17 -8.32,-8.75 -19.96,-17.23 -33.69,-25.09 -48.16,-27.53 -122.41,-47.62 -169.92,-45.57 -61.76,-32.2 -97.85,-31.26 -133.8,-30.32 -20.84,0.55 -41.64,1.09 -67.38,-4.9 -4.72,-2.25 -4.24,-8.09 -0.65,-15.93 6.67,-14.59 23.93,-35.71 39.4,-54.65 15.77,-19.29 29.71,-36.36 29.1,-42.7 -0.23,-2.34 -1.88,-3.48 -5.3,-3.15 -9.68,0.93 -15.25,-17.51 -21.99,-39.81 -9.92,-32.83 -22.3,-73.79 -55.39,-76.19 -10.59,-3.36 -19.29,-8.81 -28.51,-14.59 -14.04,-8.8 -29.31,-18.37 -54.54,-22.8 -0.01,0 -0.01,0 -0.02,0 h 0.02 c -0.01,0 -0.01,0 -0.02,0 -5.89,-1.14 -10.64,-5.4 -13.72,-11.28 -3.24,-6.17 -4.65,-14.13 -3.67,-22.19 0.27,-0.05 0.68,-0.12 1.18,-0.22 3.43,-0.71 9.98,-2.07 14.1,-7.93 2.08,-2.95 3.7,-6.66 5.41,-10.59 2.48,-5.68 5.17,-11.84 9.69,-16.51 6.76,-7 12.69,-14.31 17.16,-20.5 5.88,-8.15 9.26,-14.61 8.87,-16.18 l 0.03,0.22 c -0.18,-4.76 -0.1,-9.98 -0.02,-15.2 0.18,-11.75 0.36,-23.57 -2.47,-30.64 -3.58,-8.92 -10.53,-10.63 -17.15,-12.25 -3.11,-0.76 -6.15,-1.51 -8.59,-3.02 -2.38,-5.18 -4.43,-10.05 -6.24,-14.38 -7.98,-19.01 -11.77,-28.03 -28.04,-24.97 -3.24,0.6 -2.38,6.39 -1.52,12.35 v 0.01 c 0.77,5.25 1.56,10.68 -0.05,11.05 -6.22,1.42 -11.24,4.32 -15.78,8.98 -4.45,4.56 -8.46,10.82 -12.75,19.07 -0.86,0.8 -1.81,1.71 -2.8,2.66 -8.66,8.25 -21.23,20.24 -31.46,13.11 -4.8,-5.81 -4.05,-15.72 -3.19,-27.13 0.62,-8.18 1.29,-17.13 0.05,-26.07 v 0 c -0.01,-0.12 2.08,-1.02 4.56,-2.08 2.95,-1.26 6.37,-2.73 8.17,-4.55 v 0.01 c 3.68,-3.73 5.26,-8.2 6.8,-12.58 v -0.01 c 0.84,-2.38 1.68,-4.76 2.85,-6.92 1.32,-2.44 0.58,-6.38 -0.19,-10.47 -0.75,-3.98 -1.53,-8.13 -0.32,-10.45 0.63,-1.21 4.1,-1.91 7.6,-2.6 v 0 c 4.09,-0.81 8.23,-1.63 9.4,-3.88 1.78,-3.39 4.18,-5.8 6.56,-8.18 2.69,-2.69 5.35,-5.36 7.21,-9.4 2.78,-6.05 3.32,-12.87 3.83,-19.37 0.35,-4.51 0.7,-8.85 1.76,-12.53 2.15,-7.48 4.93,-13.61 6.89,-17.98 1.01,-2.23 1.81,-4.02 2.24,-5.31 0.65,-1.98 0.53,-3.21 -0.8,-3.65 0,0 0,0 -0.01,0 h 0.01 c 0,-0.01 0,0 -0.01,0 -2.62,-0.86 -12.03,-3.02 -22.78,-0.06 -6.24,1.73 -12.96,5.18 -19.07,11.58 -8.13,8.53 -12.1,21.95 -16.17,35.72 -1.59,5.37 -3.2,10.81 -5.09,16.05 -3.92,10.85 -15.19,19.28 -24.26,26.06 -6.4,4.78 -11.74,8.78 -12.99,12.53 -2.03,6.05 -0.78,16.14 0.74,28.5 1.6,13 3.53,28.56 2.25,44.36 -0.66,8.17 -4.14,16.11 -7.56,23.94 -3.07,7.03 -6.12,13.99 -7.15,21.04 v 0 c -1.85,12.74 -3.41,13.61 -5.71,14.91 -1.46,0.83 -3.19,1.81 -5.34,4.95 -1.6,2.36 -3.74,4.11 -6.14,5.18 -2.25,1 -4.74,1.42 -7.25,1.19 -2.51,-0.24 -5.05,-1.12 -7.39,-2.72 -2.91,-1.98 -5.53,-5.06 -7.44,-9.34 -2.31,-5.18 -4.37,-8.29 -6.13,-9.6 -1.78,-1.3 -3.32,-1.11 -4.62,0.41 v 0 c -1,1.17 -1.78,3.29 -2.34,6.2 -1.75,9.27 -1.47,27.52 0.89,50.39 -8.68,6.95 -16.09,13.54 -22.67,19.4 -15.42,13.71 -26.35,23.43 -38.2,24.17 l -0.03,0.01 c -27.66,2.7 -48.21,-12.73 -62.63,-23.57 -6.69,-5.02 -12.12,-9.1 -16.52,-10.07 -4.95,-1.1 -7.43,2.32 -8.68,7.98 -1.1,4.96 -1.24,11.7 -1.37,18.48 -0.17,8.52 -0.35,17.11 -2.41,21.95 -41.68,40.07 -77.56,83.85 -113.49,127.69 -60.31,73.61 -120.79,147.41 -209,203.93 -1.49,0.41 -5.33,2.62 -10.98,5.87 -28.08,16.15 -102.23,58.79 -133.21,28.44 -0.92,-0.9 -2.43,-1.19 -4.34,-1.55 -4.25,-0.81 -10.85,-2.06 -14.81,-11.74 h -0.01 c -3.01,-7.36 -0.77,-12.91 1.66,-18.91 2.6,-6.43 5.39,-13.35 2.81,-23.5 -0.75,-2.91 2.05,-7.52 5.04,-12.44 3.8,-6.27 7.91,-13.03 6.14,-18.72 -1.75,-5.65 -3.27,-12.11 -4.82,-18.72 -3,-12.77 -6.13,-26.1 -11.56,-35.96 -0.17,-0.3 -0.23,-0.6 -0.18,-0.88 0.2,-1.21 1.88,-2.54 4.45,-3.86 2.82,-1.44 6.63,-2.79 10.79,-3.94 11.56,-3.21 25.81,-5.01 29.65,-3.48 3.65,2.7 8.17,53.69 -0.23,65.57 v -0.01 c -3.29,4.65 -6.13,19.05 -6.67,32.98 -0.46,11.48 0.64,22.75 4.3,28.19 3.17,4.72 10.63,11.53 18.14,17.53 9.29,7.4 18.87,13.58 20.88,13.17 16.12,-3.24 16.41,-76.23 16.55,-113.59 0.05,-12.22 0.08,-20.49 0.12,-20.5 3.46,-1.86 5.85,-5.07 7.38,-9.07 2.62,-6.86 2.73,-16.13 1.51,-24.94 -1.22,-8.78 -3.79,-17.15 -6.52,-22.23 -1.47,-2.75 -3.06,-4.62 -4.61,-5.21 -10.47,-4 -33.29,-4.55 -57.74,-3.52 -37.03,1.55 -78.01,6.94 -85.46,9.38 -12.35,-9.3 -39.66,-10.25 -63.24,-11.08 -16.77,-0.58 -31.63,-1.1 -37.42,-4.44 -12.52,-7.22 -24.48,-1.89 -35.2,2.88 -7.6,3.38 -14.56,6.48 -20.26,4.28 -1.08,-0.42 -1.78,-0.11 -2.14,0.8 v 0.01 c -0.92,2.4 5.21,14.62 11.63,27.43 6.26,12.48 12.81,25.54 13.22,29.63 v 0 c 0.02,0.2 0.63,0.25 0.39,0.27 v 0 c -12.58,1.28 -23.75,0.97 -34.43,0.67 -21.03,-0.59 -40.22,-1.12 -65.16,10.53 -6.87,3.21 -2.92,15.21 0.56,25.75 2.35,7.14 4.47,13.57 2.82,14.98 -1.62,1.38 -1.54,2.91 -0.19,4.48 4.84,5.65 31.38,12.57 41.75,15.28 0.49,0.13 1.4,0.14 2.41,0.09 -0.22,0.64 0.24,1.38 1.33,2.19 0.81,0.6 2.09,1.35 3.74,2.22 7.23,3.78 22.05,9.95 35.83,14.71 12.09,4.18 23.52,-1.7 33.13,-6.63 5.76,-2.97 10.85,-5.58 14.71,-5.26 5.52,0.46 11.6,-2.22 17.95,-5.01 8.5,-3.75 17.53,-7.73 25.67,-4.11 0,0 0,0 0,0 v 0 c 0,0 0,0 0,0 5.1,2.27 8.89,5.75 10.94,10.97 2.07,5.27 2.4,12.34 0.57,21.72 -10.02,15.91 -12.21,16.19 -17.29,16.81 -1.95,0.25 -4.29,0.54 -7.51,1.6 l -0.47,0.31 c -3.91,4.39 -5.34,7.8 -4.62,10.82 0.71,2.99 3.51,5.38 8.08,7.8 5.49,2.92 8.09,9.79 7.61,16.29 v 0 c -0.18,2.44 -0.8,4.82 -1.86,6.9 v 0 c -1.05,2.06 -2.53,3.84 -4.46,5.12 -4.62,3.06 -11.87,3.27 -21.94,-2.34 -0.32,-0.18 -0.31,-0.08 -0.31,-0.12 v 0 c -0.06,-0.51 -0.13,-1.09 -1.61,-2 -3.01,-1.85 -7.39,-6.85 -9.41,-10.5 h 0.01 c -0.51,-0.92 -0.86,-1.72 -0.97,-2.33 v 0 c -0.05,-0.26 -0.11,-0.4 -0.1,-0.41 0.09,-0.05 0.32,-0.04 0.72,0.04 3.32,0.65 6.86,-0.19 9.96,-1.94 0,0 0,0 0,0 v 0 c 0,0 0,0 0,0 2.16,-1.22 4.12,-2.9 5.64,-4.82 1.54,-1.95 2.65,-4.17 3.1,-6.45 0.48,-2.47 0.2,-5.01 -1.14,-7.37 -1.66,-2.93 -12.35,-2.42 -17.74,-2.16 -1.14,0.05 -2.04,0.1 -2.49,0.1 -1.69,-0.01 -3.47,0.89 -5.45,1.9 v 0 0 0 c -3.34,1.69 -7.36,3.74 -11.75,1.27 -0.87,-0.49 -1.63,-0.7 -2.26,-0.69 v 0 c -1.27,0.04 -2,0.82 -2.31,2.13 v 0.01 c -0.22,0.94 -0.19,2.21 0.03,3.67 v 0.01 c 0.67,4.61 3.19,11.59 5.19,16.27 1.43,3.36 4.14,4.54 5.93,5.32 v 0 c 0.45,0.19 1.05,-0.3 1.02,-0.1 -1.86,2.49 -3.51,3.58 -4.86,3.78 -0.65,0.1 -1.23,-0.02 -1.71,-0.28 -0.51,-0.27 -0.94,-0.71 -1.27,-1.22 v -0.01 c -0.65,-1.02 -0.89,-2.32 -0.58,-3.3 l 0.26,-0.8 -0.72,-0.44 c -4.98,-3.08 -8.87,-2.33 -11.99,-1.73 -2,0.39 -3.62,0.7 -4.75,-0.41 -1.93,-1.89 -3.75,-3.71 -5.46,-5.93 -1.7,-2.22 -3.33,-4.9 -4.89,-8.53 -5.15,-11.98 -9.79,-9.77 -13.69,-7.89 0,0 0,0 0,0 v 0 0 c -1.24,0.6 -2.38,1.14 -3.18,0.88 -7.85,-2.56 -9.14,-5.71 -10.28,-8.54 -1.2,-2.94 -2.29,-5.6 -8.33,-7.2 -0.39,-0.1 -0.86,-0.28 -1.35,-0.52 -2.86,-1.38 -6.93,-4.78 -9.8,-9.75 -2.86,-4.95 -4.49,-11.47 -2.48,-19.07 0.49,-1.83 1.18,-3.73 2.12,-5.68 l 0.27,-0.56 -0.34,-0.51 c -9.93,-14.68 -23,-7.17 -29.07,-3.67 -0.42,0.24 -0.8,0.45 -1.14,0.64 -0.88,-6.04 -3.28,-7.54 -7.9,-7.1 -2.1,0.21 -4.61,0.85 -7.69,1.64 -3.38,0.86 -7.48,1.91 -12.34,2.73 -4.97,-2.85 -10.4,-12.19 -14.19,-21.96 -4.03,-10.41 -6.18,-21.19 -3.9,-24.94 l 0.16,-0.64 c -0.2,-2.62 -4.74,-3.55 -9.75,-4.56 -5.1,-1.04 -10.78,-2.19 -11.32,-4.6 l -0.05,-0.16 c -1.18,-3.04 -2.44,-4.12 -3.73,-3.61 -3.92,1.52 -4.28,31.5 -4.55,55.63 v 0 0 0 c -0.17,13.91 -0.31,25.85 -0.97,28.87 -2.36,10.74 -9.21,31.23 -12.59,41.35 -0.43,1.29 -0.71,2.16 -0.91,2.73 -2.56,-0.36 -3.92,1.02 -4.6,3.46 -0.66,2.31 -0.61,5.63 -0.56,9.27 0.09,6.31 0.19,13.67 -3.35,17.32 -2.69,-0.48 -4.5,1.42 -6.27,3.29 -0.51,0.55 -1.04,1.1 -1.53,1.53 -1.48,1.27 -3.19,1.72 -5.99,-1.53 -2.23,-2.57 -2.69,-6.33 -3.3,-11.24 -0.23,-1.91 -0.49,-4 -0.88,-6.3 -2.58,-15.02 11.65,-45.23 18.76,-60.34 2.19,-4.65 3.73,-7.9 3.96,-9.02 v -0.35 c -0.34,-2.73 -2.35,-3.19 -4.18,-3.6 -0.82,-0.18 -1.59,-0.36 -1.69,-0.71 v -0.01 c -0.34,-1.27 -1.39,-1.46 -2.82,-1.08 -0.91,0.25 -2.04,0.76 -3.2,1.29 -1.15,0.52 -2.35,1.07 -3.3,1.33 v 0 c -0.58,0.16 -1,0.25 -1.02,0.17 -1.22,-4.41 -3.71,-8.1 -5.53,-10.78 -0.74,-1.09 -1.37,-2.02 -1.7,-2.67 -4.85,-9.66 -9.44,-10.14 -12.58,-10.46 -0.54,-0.05 -1.03,-0.11 -1.42,-0.21 -1.17,-0.29 -4.59,1.04 -6.92,3.03 -0.83,0.7 -1.55,1.5 -2.02,2.34 -0.53,0.93 -0.78,1.94 -0.58,2.96 v 0.01 c 0.26,1.35 1.3,2.66 3.5,3.74 3.11,1.53 5.63,5.17 7.34,9.15 1.14,2.67 1.91,5.48 2.23,7.94 0.31,2.34 0.23,4.31 -0.31,5.4 -0.12,0.23 -0.24,0.41 -0.39,0.52 -7.45,0.8 -12.65,32.63 -16.18,54.28 -1.72,10.52 -3.02,18.5 -3.14,18.51 v 0 c -0.96,0.13 -1.27,0.18 -1.82,0.27 -6.48,0.95 -15.79,2.32 -21.33,0.67 -5.33,-1.59 -12.01,1.5 -18.67,4.58 -6.39,2.95 -12.78,5.91 -17.32,4.38 -25.39,-8.56 -34.17,-13.04 -40.88,-16.46 -7.38,-3.77 -12.316,-6.29 -33.675,-11.48 -8.008,-7.81 -9.598,-16.99 -11.016,-25.21 -1.445,-8.37 -2.73,-15.8 -10.113,-20.23 -17.418,-10.46 -53.754,-7.98 -67.828,-7.01 -1.117,0.08 -2.09,0.14 -2.871,0.19 h 0.004 c -7.379,0.46 -9.121,5.5 -8.746,11.59 0.246,4.08 1.496,8.61 2.539,12.43 0.558,2.04 1.066,3.88 1.304,5.23 v 0 c 0.29,1.62 0.043,4.47 -0.265,8.15 -1.797,21.17 -5.883,69.28 73.613,97.84 11.934,4.29 18.582,-1.88 25.688,-8.48 7.093,-6.59 14.687,-13.65 28.916,-9.95 6.95,1.8 9.94,8.98 13.03,16.45 3.1,7.48 6.33,15.24 13.74,18.9 5.74,2.85 3.89,12.37 2.02,21.96 -2.25,11.58 -4.53,23.26 5.69,25.77 8.25,2.04 16.33,0.87 24.57,-0.32 7.58,-1.09 15.32,-2.22 23.34,-0.81 5.06,0.89 8.84,3.6 12.64,6.32 4.08,2.93 8.18,5.87 14.01,6.82 6.47,1.06 11.84,-1.59 17.23,-4.26 5.02,-2.48 10.08,-4.98 15.92,-4.19 6.9,0.94 9.3,6.14 11.7,11.33 2.65,5.72 5.3,11.45 13.37,12.51 11.89,1.57 20.95,2.22 31.25,2.96 3.96,0.28 8.13,0.58 12.81,0.96 1.32,0.1 2.46,-0.51 3.47,-1.55 0,0.6 0.1,1.31 0.23,2.17 0.43,2.98 1.19,8.26 -1.13,17.93 l -0.16,0.69 0.58,0.43 c 6.97,5.08 11.19,8.78 14.11,11.34 5.14,4.5 6.62,5.79 11.25,4.88 3.62,-0.72 7.18,-5.41 9.44,-11.66 l 0.01,-0.01 c 2.05,-5.69 3.09,-12.75 2.14,-19.26 v 0 c -1.02,-6.95 -4.21,-9.41 -7.87,-12.23 -1.88,-1.45 -3.9,-3 -5.74,-5.38 z m -135.07,-274.3 c 8.05,10.14 10.16,14.58 8.11,16.21 -1.89,1.51 -7.2,1.36 -14.66,1.15 -2.16,-0.06 -4.5,-0.13 -7.02,-0.16 -2.23,-2.17 -1.32,-10.86 1.26,-13.91 4.1,-4.86 4.97,-4.55 6.59,-3.97 v 0.01 c 1.27,0.46 2.9,1.04 5.72,0.67 z m 1.29,-1.82 -0.4,-0.5 -0.62,0.1 c -2.66,0.46 -4.13,-0.07 -5.27,-0.48 l 0.01,0.01 c -2.53,-0.92 -3.9,-1.41 -8.96,4.59 -3.11,3.68 -3.89,14.52 -0.91,17.04 l 0.01,0.01 c 0.11,0.09 0.21,0.17 0.29,0.22 l 0.59,0.18 c 2.61,0.03 5.09,0.1 7.36,0.16 7.91,0.23 13.55,0.39 16.06,-1.62 3.27,-2.61 1.19,-8 -8.16,-19.71 z m -23.85,360.89 c -4.29,-9.83 -15.8,-23.29 -22.69,-31.36 -1.18,-1.37 -2.24,-2.61 -3.24,-3.82 -2.01,-2.41 0.9,-4.99 4.01,-7.75 2.24,-1.98 4.58,-4.07 5.69,-6.46 10.49,4.7 27.56,13.06 40.72,23.16 13.3,10.22 22.57,22.21 16.58,33.81 -1.96,3.78 -3.3,4.77 -4.52,4.14 -1.35,-0.7 -2.92,-2.94 -4.87,-5.73 -1.66,-2.38 -3.6,-5.14 -6.02,-7.82 -2.58,-2.85 -7.07,-3.57 -11.77,-3.05 -5.08,0.56 -10.48,2.57 -13.89,4.88 z m -1.49,2.07 0.54,1.39 1.15,-0.94 c 2.96,-2.42 8.61,-4.68 13.93,-5.26 4.07,-0.45 7.88,0.09 9.93,2.36 2.32,2.56 4.22,5.27 5.85,7.6 2.11,3.03 3.82,5.46 5.65,6.41 2.46,1.27 4.73,0.14 7.42,-5.06 6.63,-12.83 -3.11,-25.69 -17.19,-36.5 -13.78,-10.58 -31.75,-19.25 -42.21,-23.89 l -1.15,-0.51 -0.32,1.22 c -0.61,2.28 -3.09,4.48 -5.46,6.57 -3.91,3.48 -7.57,6.72 -4.23,10.74 0.75,0.91 1.91,2.27 3.25,3.84 7.12,8.32 19.19,22.46 22.84,32.03 z m 49.22,-83.36 c 2.78,2.45 5.34,3.55 7.52,4.49 4.53,1.96 7.25,3.13 6.29,17.61 l 0.14,-0.12 c 0.22,1.66 3.29,5.61 8.66,11.49 6.11,6.67 15.55,16.65 27.27,29 3.35,3.53 3.41,8.08 3.48,12.83 0.04,3.49 0.09,7.09 1.35,10.64 2.69,7.59 7.12,13.22 10.52,17.52 2.74,3.48 4.76,6.04 4.42,7.68 v 0 l -0.01,0.02 v 0 c -1.01,2.17 -10.4,4.39 -20.98,-0.53 v 0 0 0 c -2.28,-1.07 -4.67,-2.06 -7.05,-3.06 -5.55,-2.31 -11.07,-4.62 -15.74,-8.07 -6.18,-4.55 -10.43,-9.82 -13.56,-13.71 -3.11,-3.86 -5.22,-6.49 -7.53,-6.1 -1.02,0.17 -1.49,-0.32 -1.64,-1.17 v -0.01 c -0.36,-2.13 0.62,-5.97 1.49,-9.4 v 0 c 0.77,-3.04 1.47,-5.79 1.18,-7.26 -0.2,-1.01 -0.69,-1.6 -1.58,-1.63 -14.83,-16.27 -20.34,-17.36 -25.24,-18.33 -1.45,-0.28 -2.85,-0.57 -4.41,-1.27 -1.24,-0.56 -2.62,-1.88 -4.28,-3.47 -3.39,-3.24 -7.92,-7.58 -15.65,-9.82 -0.99,-9.25 -7.89,-15.68 -12.73,-20.19 -2.5,-2.34 -4.39,-4.1 -4.33,-5.02 0.19,-2.9 2.22,-3.69 5.17,-3.5 2.79,0.18 6.38,1.16 10.11,2.18 9.7,2.65 20.41,5.57 23.59,-3.3 7.03,1.45 11.85,2.23 15.46,2.55 3.55,0.32 5.94,0.22 8.08,-0.05 z m 1.08,-1.93 -0.37,-0.34 -0.51,0.07 c -2.14,0.31 -4.47,0.44 -8.09,0.11 -3.67,-0.33 -8.69,-1.14 -16.18,-2.71 l -0.99,-0.21 -0.27,0.98 c -2.16,7.96 -12.19,5.22 -21.24,2.75 -3.85,-1.06 -7.54,-2.06 -10.53,-2.26 -4.25,-0.27 -7.17,0.97 -7.46,5.52 -0.13,1.93 2.09,4 5.01,6.73 4.71,4.39 11.49,10.71 12.11,19.53 l 0.06,0.76 0.75,0.21 c 7.64,2.03 12.12,6.32 15.45,9.51 1.81,1.72 3.31,3.15 4.88,3.86 1.79,0.81 3.31,1.12 4.88,1.42 4.61,0.91 9.79,1.95 24.41,18.06 l 0.41,0.45 0.33,-0.06 c 0.1,1.1 -0.52,3.5 -1.19,6.13 0,0 0,0 0,0 v 0 c 0,0 0,0 0,0 -0.92,3.64 -1.96,7.71 -1.52,10.29 v 0 c 0.36,2.14 1.55,3.37 4.11,2.94 1.07,-0.18 2.87,2.05 5.51,5.33 3.21,3.98 7.55,9.38 13.96,14.1 4.87,3.58 10.52,5.95 16.19,8.31 2.32,0.97 4.65,1.95 6.97,3.02 v 0 c 11.75,5.47 22.55,2.22 23.82,-0.5 l 0.01,-0.01 -0.01,0.01 c 0.01,0 0.01,-0.01 0.01,-0.01 0.07,-0.16 0.13,-0.32 0.16,-0.48 0.56,-2.63 -1.72,-5.53 -4.83,-9.45 -3.3,-4.19 -7.61,-9.66 -10.18,-16.91 -1.13,-3.21 -1.18,-6.63 -1.23,-9.94 -0.07,-5.19 -0.14,-10.14 -4.07,-14.29 -11.52,-12.13 -20.84,-21.99 -27.23,-28.98 -5.12,-5.6 -10.39,-8.81 -9.36,-8.76 l 1.05,0.05 0.07,-1.06 c 1.06,-15.99 -2.19,-17.4 -7.6,-19.72 -2.12,-0.92 -4.62,-2 -7.29,-4.45 z m 331.63,-1312.15 c 10.61,37.05 21.55,81.05 25.36,116.74 3.79,35.43 0.61,62.57 -16.88,66.06 -8.94,1.78 -12.09,-4.03 -17.91,-14.78 -7.45,-13.76 -19.08,-35.24 -51.76,-59.23 6.99,-29.61 5.61,-54.24 4.52,-73.76 -1.76,-31.48 -2.76,-49.37 34.82,-52.92 l -0.01,0.01 c 7.21,-0.57 12.21,6.5 15.94,11.76 v 0 c 2.18,3.09 4,5.66 5.92,6.12 z m 1.86,-1.32 -0.26,-0.9 -0.92,0.13 c -1.01,0.14 -2.72,-2.25 -4.85,-5.27 v -0.01 c -4.03,-5.69 -9.44,-13.33 -17.87,-12.67 l -0.01,0.01 c -39.65,3.75 -38.61,22.39 -36.78,55.18 1.09,19.54 2.47,44.22 -4.63,73.83 l -0.16,0.7 0.58,0.42 c 32.73,23.88 44.32,45.27 51.71,58.94 6.32,11.66 9.73,17.96 20.23,15.87 18.93,-3.77 22.5,-31.84 18.59,-68.4 -3.85,-36.07 -14.94,-80.54 -25.63,-117.83 z m 915.14,-204.17 v 1.25 c 0,18.31 6.13,24.06 18.49,35.66 1.7,1.6 3.54,3.33 5.46,5.18 6.2,15.34 3.17,32.75 0.33,49 -4.31,24.64 -8.16,46.69 20.1,56.1 61.36,20.44 186.26,11.93 269.45,6.26 28.47,-1.94 52.05,-3.55 66.44,-3.55 17.23,0 32.74,1.33 46.24,2.48 33.63,2.89 55.09,4.73 61.84,-17.4 2.92,-9.6 3.7,-25.82 3.35,-41.66 -0.49,-22.07 -3.3,-43.62 -5.57,-45.8 -5.12,-4.92 -8.79,-16.41 -12.61,-28.38 -4.38,-13.73 -8.97,-28.11 -16.46,-34.67 -31.44,-27.5 -62.66,-44.85 -81.53,-55.34 -1.25,-0.69 -2.45,-1.35 -3.93,-2.18 6.03,-4.77 8.2,-11.71 7.18,-19.38 -0.79,-5.92 -3.5,-12.28 -7.79,-18.38 -4.26,-6.06 -10.1,-11.89 -17.18,-16.79 -19.15,-13.25 -47.45,-19.8 -78.39,-6.15 l -0.38,0.28 -23.5,27.49 -0.25,0.59 c -1.62,15.16 -0.89,27.82 -0.21,39.48 1.2,20.59 2.22,38.05 -10.48,60.37 l -0.02,0.04 c -0.94,1.82 -1.87,3.7 -2.8,5.59 -10.38,20.96 -21.53,43.46 -67.5,23.85 l -0.54,-0.23 -0.49,0.33 c -10.21,7 -33.97,-4.15 -55.34,-14.18 -14.33,-6.72 -27.6,-12.95 -35.48,-13.03 -18.61,-0.21 -31.45,1.35 -42.35,2.67 -12.23,1.48 -22.01,2.66 -34.84,0.69 z m 2.17,2.51 c 12.48,1.76 22.16,0.58 34.17,-0.87 10.83,-1.32 23.58,-2.86 42.07,-2.66 7.43,0.08 20.5,6.22 34.59,12.83 21.58,10.12 45.53,21.37 56.97,14.33 47.39,20 58.96,-3.34 69.74,-25.1 0.91,-1.86 1.84,-3.72 2.77,-5.52 0,-0.01 0.01,-0.03 0.01,-0.04 l -0.01,0.04 c 0,-0.01 0.01,-0.03 0.01,-0.04 13,-22.86 11.96,-40.59 10.75,-61.52 -0.67,-11.51 -1.4,-24 0.15,-38.8 l 23.12,-27.04 c 30.06,-13.16 57.5,-6.8 76.08,6.05 6.87,4.75 12.52,10.39 16.64,16.25 4.1,5.82 6.68,11.85 7.42,17.43 0.99,7.42 -1.3,14.07 -7.62,18.33 l -1.46,0.98 1.53,0.85 c 1.11,0.62 3.17,1.77 5.38,3 18.8,10.44 49.91,27.73 81.17,55.08 7.03,6.15 11.53,20.24 15.82,33.7 3.9,12.24 7.65,23.98 13.17,29.28 1.95,1.88 4.43,22.69 4.91,44.29 0.34,15.66 -0.41,31.64 -3.27,41 -6.23,20.44 -27.02,18.66 -59.59,15.87 -13.51,-1.16 -29.01,-2.49 -46.42,-2.49 -14.53,0 -38.12,1.62 -66.58,3.55 -83.03,5.66 -207.69,14.16 -268.63,-6.15 -26.49,-8.82 -22.8,-30.01 -18.66,-53.68 2.9,-16.62 6.01,-34.43 -0.55,-50.4 l -0.25,-0.36 c -2.02,-1.96 -3.9,-3.72 -5.64,-5.35 -11.61,-10.9 -17.51,-16.44 -17.79,-32.84 z m 63.07,1219.7 0.2,0.08 c 26.05,6.07 47.01,5.53 68.01,4.98 35.73,-0.93 71.6,-1.87 133.01,30.21 l 0.55,0.12 c 47.15,-2.13 121.09,17.86 169.04,45.27 13.57,7.77 25.04,16.11 33.2,24.7 8.07,8.48 12.88,17.2 13.27,25.78 0.21,4.67 -0.9,9.33 -3.51,13.92 -17.05,22.12 -99.7,114.52 -187.59,196.87 -52.52,49.22 -106.91,94.83 -150.23,119.66 l -0.12,0.08 c -26.29,19.8 -70.15,46.89 -128.94,76.68 -47.73,24.19 -105.32,50.16 -171.33,75.47 -5.51,1.01 -10.4,-6.93 -13.97,-12.76 -1.85,-3 -3.38,-5.49 -4.75,-6.3 l -0.52,-0.15 c -61.05,-1.18 -63.42,-18.44 -66.04,-37.52 -1.15,-8.39 -2.35,-17.12 -8.23,-25.16 l -0.47,-0.37 c -0.36,-0.14 -1.03,-0.53 -1.87,-1.02 v -0.01 c -0.99,-0.57 -2.22,-1.29 -3.61,-1.99 -4.9,-2.46 -11.23,-4.38 -14.26,1.64 -1.39,2.77 -3.05,5.11 -4.92,7.05 -6.93,7.2 -16.98,9.06 -28.06,7.74 -11.28,-1.35 -23.61,-5.98 -34.91,-11.66 -15.25,-7.68 -28.6,-17.28 -34.95,-23.4 l -0.54,-0.28 -374.24,-70.25 -0.12,-0.02 c -15.25,-1.07 -28.86,-2.79 -41.47,-4.38 -52.04,-6.56 -87.47,-11.03 -142.05,39.61 -6.67,-1.23 -13.82,-3.37 -20.6,-5.73 -6.94,-2.43 -13.57,-5.11 -18.87,-7.28 -8.27,-3.37 -15.81,-9.61 -22.5,-15.16 -5.41,-4.47 -10.28,-8.52 -14.7,-10.37 -21.34,-8.96 -30.08,-8.71 -39.22,-8.45 -7.12,0.21 -14.51,0.42 -28.63,-3.96 l -0.1,-0.03 c -2.58,-0.53 -12.32,-4.64 -20.39,-11.13 -4.76,-3.83 -8.92,-8.49 -10.55,-13.67 v -0.01 c -0.93,-2.96 -4.68,-7.1 -8.72,-11.57 -6.26,-6.92 -13.31,-14.71 -10.77,-18.66 0.34,-0.53 0.62,-1.22 0.92,-1.98 0.66,-1.64 1.49,-3.7 3.21,-4.22 0.01,0 0.01,0 0.01,0 h -0.01 c 0.01,-0.01 0.01,0 0.01,0 5.62,-1.69 12.89,-0.38 19.3,0.78 5.89,1.06 11.13,2 14.41,0.38 1.07,-0.7 3.32,-6.38 -3.2,-16.41 -3.46,-5.34 -8.14,-10.49 -12.48,-15.27 -3.55,-3.9 -6.88,-7.56 -9.05,-10.8 -1.97,-2.93 -2.87,-5.58 -3.02,-7.44 -0.06,-0.7 -0.01,-1.25 0.11,-1.62 0.07,-0.19 0.13,-0.31 0.17,-0.32 0,0.01 0.04,0.01 0.08,0.03 1.9,0.57 4.53,0.41 7.72,0.22 3.46,-0.21 7.63,-0.46 12.06,0.16 5.3,0.74 12.52,6.22 19.53,11.54 5.31,4.03 10.51,7.97 14.87,9.85 21.29,9.17 30.8,24.41 37.95,35.86 4.85,7.76 8.65,13.85 14.41,15.48 2.38,0.67 5.52,2.76 8.92,5.02 7.75,5.17 16.84,11.22 23.83,5.28 0,0 0,0 0,0 v 0 c 0,-0.01 0,0 0,0 4.45,-3.8 -2.83,-12.09 -9.92,-20.18 -5.61,-6.39 -11.1,-12.65 -10.05,-15.19 2.59,-6.27 7.2,-10.98 12.52,-14.09 4.05,-2.37 8.53,-3.82 12.82,-4.33 4.25,-0.5 8.33,-0.08 11.62,1.28 2.63,1.09 4.78,2.78 6.12,5.07 l 2.01,-0.55 c -0.2,-14.7 -2.58,-21.29 -8.5,-22.71 -5.66,-1.36 -14.34,2.43 -27.47,8.45 -0.63,0.29 -0.95,0.3 -1.04,0.11 -1.01,-2.21 1.9,-10.66 4.01,-16.79 1.23,-3.55 2.2,-6.39 2.05,-7.31 v -0.01 c -0.43,-2.53 -1.79,-2.55 -7.5,-2.61 -6.68,-0.07 -20.21,-0.21 -47.61,-4.48 -4.56,-0.71 -9.55,-5.14 -14.14,-9.21 -3.96,-3.52 -7.64,-6.79 -10.88,-7.52 -10.34,-2.35 -13.73,0.02 -18.03,3.04 -6.98,4.88 -16.6,11.61 -68.84,-0.15 -3.58,-0.8 -5.76,3.9 -7.97,8.66 -1.83,3.95 -3.68,7.95 -5.69,7.78 -4.55,-0.36 -8.79,-0.67 -12.83,-0.96 -10.35,-0.74 -19.46,-1.39 -31.13,-2.93 -6.89,-0.91 -9.29,-6.1 -11.69,-11.28 -2.64,-5.72 -5.3,-11.46 -13.37,-12.56 -6.48,-0.88 -11.83,1.77 -17.15,4.4 -5.08,2.51 -10.14,5.01 -15.94,4.06 -5.31,-0.86 -9.22,-3.67 -13.1,-6.45 -3.99,-2.86 -7.97,-5.72 -13.52,-6.69 -8.36,-1.47 -16.27,-0.32 -24.01,0.8 -8.05,1.16 -15.92,2.3 -23.76,0.37 -8.21,-2.03 -6.14,-12.71 -4.08,-23.29 2.02,-10.39 4.03,-20.71 -3.19,-24.29 -6.69,-3.3 -9.76,-10.69 -12.7,-17.79 -3.31,-7.98 -6.49,-15.64 -14.48,-17.72 -15.367,-3.99 -23.413,3.48 -30.917,10.46 -6.614,6.14 -12.793,11.88 -23.5,8.04 -77.926,-28 -73.942,-74.98 -72.184,-95.65 0.32,-3.82 0.57,-6.77 0.227,-8.7 v 0 c -0.274,-1.52 -0.782,-3.36 -1.344,-5.42 -1.012,-3.7 -2.231,-8.12 -2.465,-11.98 -0.305,-4.91 1.031,-8.96 6.719,-9.31 h 0.004 c 0.832,-0.05 1.797,-0.12 2.883,-0.19 13.89,-0.95 49.761,-3.41 66.585,6.69 6.528,3.92 7.735,10.89 9.094,18.75 1.481,8.61 3.153,18.26 11.844,26.59 l 0.492,0.27 c 21.348,5.18 26.207,7.66 33.502,11.38 6.76,3.45 15.6,7.96 41.17,16.59 5.35,1.8 12.13,-1.34 18.91,-4.47 6.29,-2.91 12.59,-5.83 17.14,-4.47 6,1.79 15.59,0.38 22.26,-0.6 0.71,-0.11 1.62,-0.24 1.81,-0.27 1.68,-0.24 3.1,-8.89 4.96,-20.29 3.46,-21.21 8.57,-52.5 14.35,-52.49 l 0.42,-0.09 c 0.7,-0.3 1.24,-0.86 1.61,-1.62 0.73,-1.48 0.88,-3.88 0.51,-6.63 -0.34,-2.63 -1.17,-5.66 -2.39,-8.5 -1.88,-4.4 -4.74,-8.45 -8.36,-10.23 -1.51,-0.75 -2.2,-1.51 -2.34,-2.24 -0.09,-0.47 0.05,-0.99 0.34,-1.5 0.35,-0.6 0.9,-1.21 1.54,-1.76 1.87,-1.6 4.32,-2.74 5.01,-2.57 0.53,0.13 1.1,0.19 1.71,0.26 2.67,0.27 6.57,0.68 10.89,9.28 0.41,0.83 1.07,1.79 1.83,2.92 1.75,2.57 4.14,6.1 5.25,10.15 0.46,1.65 1.87,1.82 3.66,1.32 v 0.01 c 1.1,-0.3 2.39,-0.89 3.62,-1.45 1.08,-0.49 2.13,-0.97 2.87,-1.17 0.17,-0.04 0.11,-0.7 0.19,-0.43 v -0.01 c 0.43,1.62 1.81,1.92 3.29,2.26 1.07,0.24 2.25,0.5 2.5,1.59 -0.3,1.06 -1.74,4.11 -3.75,8.37 -7.21,15.31 -21.64,45.93 -18.94,61.62 0.38,2.2 0.64,4.28 0.87,6.19 0.65,5.28 1.15,9.31 3.81,12.39 3.99,4.62 6.64,3.79 9.02,1.74 0.6,-0.52 1.14,-1.1 1.69,-1.68 1.44,-1.53 2.92,-3.08 4.7,-2.54 l 0.57,0.18 0.45,-0.4 c 4.69,-4.16 4.58,-12.35 4.48,-19.34 -0.04,-3.49 -0.09,-6.68 0.48,-8.67 0.41,-1.47 1.26,-2.22 2.95,-1.74 l 1,0.27 0.32,-0.97 c 0.58,-1.76 1.1,-3.31 1.21,-3.65 3.4,-10.17 10.28,-30.77 12.65,-41.58 0.71,-3.23 0.86,-15.28 1.02,-29.3 v 0 c 0.27,-23.48 0.62,-52.66 3.18,-53.65 0.01,-0.01 0.3,0.7 0.92,2.3 0.91,3.73 7.27,5.02 12.99,6.18 3.85,0.78 7.39,1.49 7.94,2.39 -2.28,4.62 -0.15,15.8 3.96,26.41 4.02,10.39 9.96,20.38 15.5,23.27 l 0.67,0.1 c 5.17,-0.84 9.41,-1.93 12.89,-2.82 3.02,-0.77 5.47,-1.41 7.36,-1.59 3.51,-0.34 5.19,1.06 5.75,6.69 l 0.12,1.33 1.27,-0.41 c 0.68,-0.22 1.6,-0.75 2.77,-1.42 5.46,-3.14 17.11,-9.84 25.87,2.51 -0.86,1.89 -1.53,3.73 -2,5.5 -2.19,8.25 -0.41,15.32 2.69,20.69 3.1,5.37 7.57,9.08 10.74,10.6 0.63,0.31 1.22,0.53 1.73,0.67 5,1.32 5.9,3.51 6.88,5.93 1.33,3.26 2.81,6.9 11.62,9.78 1.62,0.53 3.13,-0.2 4.77,-0.99 v -0.01 c 2.97,-1.42 6.51,-3.12 10.78,6.81 1.63,3.8 3.35,6.62 5.16,8.98 1.8,2.36 3.68,4.23 5.66,6.17 h 0.01 c 1.94,1.9 4.05,1.49 6.65,0.99 2.62,-0.51 5.86,-1.13 9.83,1.06 -0.18,1.4 0.18,2.99 0.98,4.25 v -0.01 c 0.51,0.82 1.22,1.52 2.08,1.98 0.87,0.47 1.91,0.68 3.04,0.51 1.88,-0.28 4.07,-1.65 6.36,-4.75 l 0.12,-0.19 c 0.72,-1.6 -0.4,-2.1 -2.1,-2.84 l -0.01,-0.01 c -1.47,-0.64 -3.72,-1.62 -4.8,-4.17 -1.95,-4.56 -4.4,-11.33 -5.04,-15.76 -0.18,-1.21 -0.22,-2.21 -0.06,-2.88 0.06,-0.29 0.16,-0.46 0.27,-0.46 0.25,-0.01 0.63,0.12 1.14,0.41 5.4,3.02 9.98,0.69 13.78,-1.23 v 0 c 1.73,-0.89 3.29,-1.68 4.48,-1.67 0.53,0 1.44,-0.04 2.59,-0.1 4.94,-0.24 14.76,-0.71 15.77,1.07 1.06,1.88 1.28,3.91 0.9,5.9 -0.38,1.93 -1.34,3.84 -2.68,5.52 -1.35,1.71 -3.09,3.21 -5.01,4.29 v 0 c -2.67,1.51 -5.69,2.24 -8.49,1.69 -0.96,-0.18 -1.7,-0.09 -2.24,0.25 -0.87,0.53 -1.13,1.46 -0.9,2.64 v 0 c 0.15,0.84 0.58,1.87 1.19,2.97 h 0.01 c 2.16,3.91 6.89,9.29 10.16,11.3 0.57,0.35 0.59,0.38 0.59,0.4 0.06,0.54 0.12,1.04 1.41,1.76 10.9,6.07 18.93,5.72 24.17,2.25 2.25,-1.49 3.98,-3.56 5.18,-5.93 v -0.01 0.01 -0.01 c 1.2,-2.35 1.9,-5.01 2.1,-7.71 v -0.01 0.01 -0.01 c 0.54,-7.26 -2.46,-14.99 -8.76,-18.34 -4,-2.12 -6.44,-4.11 -6.98,-6.4 -0.53,-2.23 0.69,-4.98 3.94,-8.67 2.89,-0.93 5.03,-1.2 6.82,-1.42 5.81,-0.72 8.3,-1.03 18.96,-17.97 l 0.14,-0.37 c 1.96,-9.9 1.59,-17.43 -0.64,-23.12 -2.28,-5.78 -6.46,-9.65 -12.07,-12.14 v -0.01 c -9.01,-4 -18.48,0.17 -27.41,4.11 -6.08,2.67 -11.91,5.24 -16.9,4.83 -4.46,-0.38 -9.82,2.37 -15.88,5.5 -9.23,4.74 -20.21,10.39 -31.44,6.5 -13.68,-4.72 -28.38,-10.84 -35.54,-14.59 -1.02,-0.53 -1.87,-1.02 -2.55,-1.43 4.11,-0.14 3.58,-0.7 0.66,-1.59 1.14,-0.28 1.13,-0.54 -1.84,-0.54 -1.21,-0.33 -2.64,-0.7 -4.2,-1.1 -10.19,-2.66 -36.26,-9.46 -40.66,-14.59 -0.46,-0.55 -0.52,-1.05 -0.04,-1.46 2.74,-2.35 0.42,-9.42 -2.17,-17.28 -3.2,-9.7 -6.84,-20.74 -1.7,-23.14 24.46,-11.42 43.42,-10.89 64.2,-10.32 10.71,0.3 21.92,0.61 34.68,-0.68 v 0 0 0 c 1.23,-0.12 1.7,-1.04 1.54,-2.62 0,0 0,0 0,0 v 0 c 0,0 0,0 0,0 -0.45,-4.51 -7.09,-17.74 -13.43,-30.38 -5.65,-11.27 -11.06,-22.08 -11.54,-25.06 6.38,2.08 13.5,-1.08 21.26,-4.54 10.24,-4.56 21.67,-9.65 33.26,-2.97 6.24,3.6 21.36,4.13 38.42,4.72 23.51,0.82 50.79,1.78 62.38,10.93 l 0.94,0.75 0.64,-1.02 c 1.1,-1.72 45.12,-7.29 84.89,-8.96 24.21,-1.02 46.74,-0.49 56.9,3.39 1.04,0.39 2.25,1.91 3.48,4.21 2.62,4.88 5.09,12.98 6.28,21.5 1.18,8.5 1.09,17.39 -1.4,23.88 -1.35,3.54 -3.42,6.35 -6.38,7.94 -1.17,0.63 -1.21,9.41 -1.25,22.4 -0.14,36.76 -0.43,108.58 -14.82,111.48 -1.45,0.28 -10.26,-5.68 -19.12,-12.75 -7.37,-5.88 -14.66,-12.52 -17.69,-17.03 -3.38,-5.03 -4.38,-15.83 -3.94,-26.92 0.53,-13.57 3.2,-27.46 6.28,-31.81 v -0.01 c 8.75,-12.37 3.57,-65.84 -0.3,-68.57 l -0.02,-0.02 c -0.09,-0.05 -0.19,-0.11 -0.3,-0.16 h -0.01 c -4.11,-1.74 -19.12,0.03 -31.12,3.36 -4.31,1.19 -8.25,2.6 -11.19,4.09 -3.18,1.63 -5.27,3.46 -5.6,5.43 v 0.01 c -0.12,0.75 0,1.52 0.41,2.26 5.29,9.6 8.39,22.78 11.35,35.4 1.55,6.6 3.06,13.06 4.87,18.87 1.47,4.76 -2.38,11.1 -5.94,16.97 -3.23,5.32 -6.25,10.31 -5.28,14.09 2.41,9.47 -0.25,16.06 -2.71,22.17 -2.6,6.42 -5,12.35 -1.65,20.53 l -0.01,-0.01 c 4.4,10.76 11.71,12.15 16.41,13.04 1.55,0.29 2.78,0.53 3.23,0.97 32.16,31.5 107.32,-11.72 135.8,-28.1 5.82,-3.35 9.65,-5.55 10.45,-5.65 l 0.44,-0.16 c 88.59,-56.73 149.22,-130.71 209.68,-204.49 35.94,-43.87 71.83,-87.66 113.47,-127.67 l 0.24,-0.34 c 2.31,-5.21 2.49,-14.13 2.67,-22.96 0.14,-6.69 0.27,-13.33 1.32,-18.06 0.97,-4.4 2.74,-7.09 6.12,-6.34 3.95,0.87 9.2,4.82 15.69,9.69 14.71,11.04 35.64,26.77 64.12,23.99 l -0.03,0.01 c 12.58,-0.8 23.74,-10.71 39.49,-24.72 6.69,-5.95 14.24,-12.67 23.04,-19.69 l 0.46,-0.37 -0.06,-0.59 c -2.4,-22.93 -2.71,-41.19 -0.97,-50.35 0.48,-2.54 1.1,-4.32 1.85,-5.2 v 0 c 0.46,-0.54 1.03,-0.58 1.72,-0.07 1.47,1.08 3.29,3.91 5.44,8.73 2.08,4.68 4.97,8.06 8.18,10.25 2.66,1.8 5.55,2.81 8.42,3.07 2.87,0.27 5.73,-0.21 8.32,-1.36 2.76,-1.23 5.21,-3.24 7.04,-5.92 1.86,-2.73 3.35,-3.58 4.62,-4.29 2.85,-1.61 4.77,-2.7 6.78,-16.48 0,0 0,0 0,0 v 0 c 0,0 0,0 0,0 1,-6.8 3.98,-13.61 6.99,-20.5 3.5,-8 7.06,-16.13 7.74,-24.62 1.3,-15.97 -0.64,-31.68 -2.26,-44.79 -1.5,-12.11 -2.71,-21.98 -0.84,-27.56 1.03,-3.11 6.13,-6.93 12.24,-11.49 9.3,-6.95 20.86,-15.59 25,-27.05 1.88,-5.23 3.51,-10.73 5.12,-16.18 3.99,-13.51 7.89,-26.68 15.67,-34.84 5.81,-6.08 12.16,-9.36 18.08,-10.99 10.19,-2.81 19.08,-0.78 21.55,0.03 v 0 c 0.18,0.06 -0.36,0.28 -0.58,0.93 -0.4,1.22 -1.18,2.95 -2.15,5.1 -1.99,4.43 -4.8,10.65 -7,18.28 -1.13,3.92 -1.48,8.36 -1.84,12.94 -0.5,6.34 -1.02,12.99 -3.63,18.65 -1.7,3.69 -4.23,6.23 -6.78,8.78 -2.5,2.5 -5.02,5.04 -6.95,8.71 -0.68,1.32 -4.32,2.04 -7.91,2.76 v 0 0 0 c -4.01,0.79 -7.98,1.59 -9.09,3.71 -1.55,2.98 -0.7,7.5 0.12,11.84 0.7,3.7 1.37,7.28 0.41,9.06 -1.25,2.28 -2.12,4.75 -2.99,7.24 v -0.01 c -1.46,4.16 -2.96,8.4 -6.31,11.78 v 0 c -1.5,1.52 -4.7,2.9 -7.47,4.08 -3.3,1.41 -6.09,2.62 -5.85,4.35 v 0 c 1.2,8.68 0.54,17.53 -0.07,25.62 -0.9,11.94 -1.68,22.3 3.77,28.78 l 0.2,0.18 c 11.69,8.33 25.09,-4.44 34.31,-13.22 1.01,-0.97 1.99,-1.89 2.91,-2.75 l 0.23,-0.3 c 4.24,-8.16 8.15,-14.32 12.47,-18.74 4.25,-4.35 8.92,-7.05 14.72,-8.39 3.55,-0.81 2.61,-7.23 1.7,-13.45 0,0 0,0 0,0 v 0 c 0,0 0,0 0,0 -0.71,-4.93 -1.41,-9.71 -0.21,-9.94 14.56,-2.73 18.13,5.77 25.65,23.7 1.82,4.31 3.86,9.18 6.41,14.73 l 0.39,0.46 c 2.79,1.8 6.12,2.62 9.51,3.45 6.1,1.5 12.49,3.07 15.67,10.98 2.66,6.65 2.48,18.25 2.3,29.8 -0.08,5.26 -0.16,10.52 0.03,15.32 l 0.03,0.22 c 0.26,1.04 -3,6.75 -8.52,14.4 -4.41,6.1 -10.27,13.32 -16.97,20.26 -4.78,4.94 -7.55,11.29 -10.1,17.15 -1.67,3.81 -3.24,7.42 -5.2,10.21 -3.64,5.16 -9.64,6.41 -12.78,7.06 -1.32,0.27 -2.24,0.47 -2.68,0.94 v 0 c -0.44,0.48 -0.53,0.94 -0.25,1.42 -0.96,8.4 0.55,16.68 3.94,23.15 3.38,6.44 8.65,11.12 15.25,12.4 h 0.01 c 24.82,4.35 39.92,13.81 53.78,22.51 9.38,5.87 18.21,11.41 29.15,14.85 l 0.25,0.05 c 31.69,2.2 43.85,42.44 53.58,74.67 7.02,23.23 12.82,42.43 24.26,41.32 1.94,-0.18 2.87,0.26 2.96,1.22 0.53,5.46 -13.15,22.22 -28.62,41.14 -15.55,19.03 -32.9,40.26 -39.69,55.12 -4.16,9.1 -4.43,15.96 1.82,18.82 z m -879.39,-41.48 c 0,0 0.01,0 0.01,0 v 0 c 0.01,0 -0.01,0 -0.01,0 z m -49.72,-305.75 c 2.4,-2.1 4.51,-4.34 6.35,-6.73 55.36,-71.57 -136.25,-265.16 -176.62,-296.46 -0.87,-0.94 -2.04,-1.84 -3.4,-2.89 -9.09,-7.03 -27.55,-21.3 -14.9,-93.93 v -0.01 0.01 -0.01 c 0.31,-1.78 0.65,-3.68 0.99,-5.67 6.34,-36.08 18.19,-103.52 4.33,-124.82 -16.7,-35.65 -29.14,-57.65 -38.35,-73.95 -22.88,-40.45 -25.85,-45.72 -24.74,-137.97 l -0.11,-0.48 -19.36,-40.12 v -0.01 l -24.68,-51.63 c -4.18,-13.27 -12.68,-21.72 -22.9,-26.72 -13.03,-6.38 -28.86,-7.12 -41.96,-5.11 -6.63,1 -12.55,-2.13 -18.23,-5.14 -7.68,-4.07 -15,-7.95 -23.55,-2.2 -21.53,14.47 -50.92,59.29 -70.79,89.61 -3.95,6.02 -7.54,11.48 -10.56,15.95 -12.42,15.07 -22.15,37.01 -32.67,60.76 -13.571,30.64 -28.493,64.31 -52.181,89.79 l -0.269,0.53 c -8.762,44.52 -6.481,72.55 -4.395,98.09 2.457,30.15 4.633,56.85 -12.16,103.3 -28.672,30.97 -45.969,62.13 -52.832,93.61 -6.855,31.43 -3.308,63.16 9.672,95.29 -10.965,28.57 -24.066,28.25 -36.723,27.93 -5.863,-0.15 -11.644,-0.3 -17.214,2.2 -7.836,3.52 -14.891,12.19 -21.293,20.06 -2.5,3.08 -4.911,6.04 -7.207,8.49 h -0.004 c -4.836,5.17 -9.129,8.02 -12.719,4.67 l -0.262,-0.18 c -8.371,-4.13 -27.726,-13.6 -52.238,-19.17 -24.559,-5.59 -54.289,-7.28 -83.344,4.16 -21.699,8.55 -34.195,28.47 -42.109,41.08 h -0.004 c -2.192,3.49 -4.039,6.43 -5.563,8.32 -16.179,19.96 -22.617,56.86 -23.847,95.64 -2.094,65.67 10.941,137.08 16.629,140.66 9.781,6.15 21.425,31.38 35.316,61.46 26.211,56.78 60.344,130.72 106.84,129.16 15.457,-0.51 29.265,20.38 43.508,41.95 16.691,25.27 33.996,51.45 56.195,46.62 13.687,1.05 18.527,7.27 22.117,11.89 4.141,5.32 6.832,8.78 17.055,2.36 12.144,-4.97 49.867,-3.87 85.148,-2.85 31.574,0.92 61.224,1.78 69.454,-1.9 l 0.27,-0.17 c 17.92,-15.67 16.88,-25.43 9.91,-33.41 -3.02,-3.46 -7.15,-6.51 -11.3,-9.58 -8.55,-6.3 -17.18,-12.68 -15.19,-22.29 v 0 0 0 c 2.1,-10.09 9.45,-15.71 17.18,-21.6 7.35,-5.6 15.04,-11.47 19.22,-21.64 19.03,-46.24 106.75,-50.43 177.81,-53.83 40.37,-1.93 75.41,-3.61 89.94,-12.67 115.15,-71.79 164.19,-148.68 180.38,-189.75 3.43,-8.68 5.39,-15.81 6.2,-20.95 0.81,-5.09 0.42,-8.48 -0.84,-9.75 z m -3.31,-0.03 1.23,1.75 c 0.29,-0.18 0.48,-0.24 0.56,-0.19 v 0.01 c 0.82,0.53 0.97,3.27 0.24,7.88 -0.78,5 -2.71,11.96 -6.08,20.5 -16.08,40.81 -64.86,117.23 -179.51,188.71 -14.05,8.75 -48.84,10.42 -88.91,12.34 -71.67,3.42 -160.14,7.66 -179.69,55.16 -3.97,9.64 -11.42,15.32 -18.54,20.75 -8.05,6.14 -15.72,12 -17.98,22.87 v 0.01 c -2.27,10.94 6.91,17.74 16.01,24.45 4.06,3 8.1,5.98 10.96,9.26 6.15,7.04 6.92,15.81 -9.57,30.27 -7.98,3.4 -37.24,2.55 -68.385,1.65 -35.578,-1.04 -73.613,-2.14 -86.11,3.05 l -0.16,0.08 c -8.644,5.45 -10.867,2.59 -14.293,-1.81 -3.851,-4.96 -9.05,-11.64 -23.785,-12.74 l -0.316,0.03 c -20.84,4.69 -37.781,-20.93 -54.117,-45.67 -14.586,-22.08 -28.719,-43.47 -45.368,-42.91 -45.078,1.51 -78.875,-71.7 -104.824,-127.91 -14.031,-30.4 -25.801,-55.89 -36.121,-62.38 -5.398,-3.4 -17.691,-73.73 -15.621,-138.77 1.219,-38.38 7.527,-74.83 23.359,-94.36 1.645,-2.03 3.508,-5 5.723,-8.53 v 0 0 0 c 7.773,-12.38 20.039,-31.93 41.074,-40.22 28.574,-11.25 57.871,-9.58 82.086,-4.07 24.117,5.48 43.223,14.79 51.61,18.93 4.828,4.4 10,1.18 15.656,-4.86 h -0.004 c 2.34,-2.5 4.773,-5.5 7.309,-8.61 6.246,-7.68 13.136,-16.16 20.496,-19.46 5.117,-2.29 10.668,-2.15 16.293,-2.01 13.464,0.34 27.394,0.7 38.933,-29.7 l -0.008,-0.79 c -12.949,-31.87 -16.507,-63.31 -9.722,-94.43 6.797,-31.14 23.965,-62.03 52.457,-92.76 l 0.218,-0.36 c 17.043,-47.06 14.848,-73.99 12.368,-104.41 -2.067,-25.35 -4.332,-53.17 4.297,-97.22 23.808,-25.71 38.761,-59.44 52.365,-90.16 10.47,-23.62 20.15,-45.47 32.4,-60.31 l 0.07,-0.08 c 3.09,-4.57 6.66,-10.01 10.59,-16 19.78,-30.18 49.03,-74.79 70.19,-89.01 7.48,-5.03 14.24,-1.45 21.34,2.31 6,3.18 12.24,6.49 19.56,5.38 12.75,-1.95 28.11,-1.25 40.7,4.91 9.74,4.77 17.85,12.84 21.81,25.52 l 0.05,0.14 24.72,51.69 v 0 l 19.25,39.9 c -1.11,92.59 1.92,97.94 25.02,138.81 9.22,16.32 21.67,38.34 38.33,73.88 l 0.07,0.14 c 13.44,20.54 1.67,87.51 -4.62,123.33 -0.35,1.98 -0.68,3.89 -0.99,5.67 v 0 c -12.87,73.9 6.27,88.71 15.7,96 1.3,1.01 2.42,1.87 3.17,2.69 l 0.13,0.12 c 39.88,30.84 230.8,223.11 176.34,293.53 -2.23,2.88 -4.88,5.56 -7.96,8.01 z m 1045.67,1.51 c 7.59,27.81 -3.28,52.97 -16.61,56.79 -0.32,0.09 -0.67,0.18 -1.03,0.25 -3.67,0.73 -6.64,-2.31 -8.94,-9.01 -2.45,-7.17 -4.05,-18.35 -4.81,-33.4 1.04,-4.45 1.41,-9.25 1.76,-14.06 1.09,-14.88 2.19,-29.86 24.78,-31.69 5.14,-0.42 10.67,-1.31 15.92,-2.15 10.97,-1.76 20.65,-3.32 23.04,-0.02 3.05,4.21 -6.05,12.3 -15.47,19.13 -6.25,4.53 -12.74,8.52 -16.1,10.58 -0.83,0.51 -1.61,0.98 -2.27,1.39 -1.72,0.26 -1.69,0.49 -0.96,0.63 -1.78,1.21 -2.09,1.82 0.69,1.56 z m 1.83,-1.43 c 0.8,-0.03 1.53,-0.12 1.84,-0.32 3.36,-2.06 9.87,-6.06 16.24,-10.67 10.27,-7.45 20.01,-16.51 15.94,-22.13 -3.16,-4.36 -13.45,-2.71 -25.11,-0.84 -5.12,0.82 -10.53,1.69 -15.77,2.11 -24.43,1.98 -25.6,17.89 -26.76,33.7 -0.35,4.79 -0.7,9.58 -1.73,13.88 l -0.03,0.3 c 0.77,15.31 2.41,26.73 4.94,34.12 2.69,7.89 6.49,11.41 11.38,10.44 0.38,-0.08 0.78,-0.18 1.2,-0.3 h 0.01 c 14.38,-4.12 26.25,-30.96 17.85,-60.29" /><path
         id="path20"
         style="fill:#b2db18;fill-opacity:1;fill-rule:evenodd;stroke:none"
         d="m 2605.88,2020.81 c -6.94,-6.55 -4.22,-5.53 -30.64,-9.04 1.3,-5.42 -2.01,-9.64 -1.34,-12.95 6.52,-32.09 32.64,-22.01 46.78,-18.58 13.97,3.39 2.77,37.06 -14.8,40.57 z m 83.03,-223.95 c 8.47,29.52 2.79,37.58 -11.64,40.46 -8.59,1.71 0.43,0.83 -23.26,-16.45 6.93,-28.88 -2.2,-18.78 34.9,-24.01 z m -54.93,117.3 c 8.47,29.52 13.45,54.75 -0.98,57.63 -7.52,1.5 -1.22,-0.84 -16.42,-15.07 -1.08,-1.01 -12.92,-1.84 -22.6,-3.09 -9.68,-1.25 -17.21,-2.93 -9.67,-5.65 -1.56,-18.8 18.25,-14.42 23.93,-20.77 9.57,-10.69 -5.29,-22.06 9.33,-23.44 4.98,-0.39 14.66,10.64 16.41,10.39 z m 253.79,-197.77 c 10.05,34.53 -69.8,19.21 -48.87,21.35 -21.66,4.32 -9.69,62.46 -69.47,18.85 1.48,-6.13 -10.54,-8.23 -11.66,-1.47 -5.63,33.9 -15.48,36.65 -23.5,38.61 -8.03,1.97 -14.24,3.15 -19.18,-25.07 -5.16,-29.57 41.76,-29.29 65.29,-59.91 67.21,15.46 86.17,-65.32 107.39,7.64 z m -531.31,-2.84 c -18.31,67.81 -100,131.71 -130.64,172.72 -30.22,6.71 -48.43,22.89 -30.56,-44.22 47.23,-43.89 96.54,-81.76 122.21,-132.25 12.56,-0.98 34.58,4.38 38.99,3.75 z m 128.57,21.34 c 3.03,10.57 15.04,-0.21 20.29,14.7 4.07,11.59 4.24,44.16 10.15,53.76 5.71,9.27 18.94,14.09 22.32,21.93 3.78,8.8 -14.33,12.24 -9.68,19.26 2.65,4.01 -13,12.22 -9,15 27.27,18.89 21.09,53.23 -4.59,62.25 -21.44,6.93 -54.8,-75.11 -85.3,-89.48 2.95,-12.3 -29.41,0.31 -35.39,-10.15 -4.08,-7.15 11.09,-25.23 8.82,-31.02 -4.35,-11.09 9.85,-14.05 3.78,-25.57 -8.23,-15.65 20.77,-13.07 53.79,-16.19 12.56,-0.99 20.39,-13.86 24.81,-14.49 z m -1243.14,978.2 c 5.4,6.95 11.92,6.94 13.41,17.1 1.9,13.07 -4.45,28.47 -10.73,29.72 -6.65,1.32 -6.19,-2.65 -24.53,-16.03 5.78,-24.12 -7.24,-21.55 11.84,-23.36 3.85,-0.3 8.66,-7.24 10.01,-7.43 z m -133.76,-276.11 c 18.33,22.96 7.93,19.66 -14.4,19.43 -2.93,-1.92 -2.12,-12.21 0.82,-15.69 7.36,-8.71 5.77,-2.41 13.58,-3.74 z m -23.49,361.91 c -4.37,-11.46 -20.41,-29.11 -26.28,-36.18 -4.57,-5.49 8.23,-10.08 9.91,-16.34 20.84,9.23 71.51,34.47 58.87,58.9 -5.96,11.54 -8.46,0.44 -17.16,-9.18 -5.21,-5.76 -19.76,-1.75 -25.34,2.8 z m 48.56,-84.11 c 9.14,8.37 16,1.32 14.54,23.3 -1.73,-0.08 12.53,15.07 35.77,39.56 6.14,6.47 2.12,15.52 5.07,23.85 4.91,13.9 15.94,21.19 14.97,25.78 -0.53,2.5 -10.94,5.62 -22.49,0.24 -7.81,-3.63 -16.21,-6.24 -22.97,-11.23 -12.03,-8.85 -16.73,-20.22 -20.29,-19.62 -7.95,1.35 3.1,-20.26 -1.16,-19.41 -19.58,-21.58 -22.68,-16.58 -29.65,-19.74 -4.19,-1.89 -8.58,-10.26 -20.5,-13.44 -1.02,-14.41 -17.38,-22.12 -17.13,-26.11 0.92,-14.27 34.57,11.22 39.21,-5.8 15.04,3.17 20.22,3.25 24.63,2.62 z m 333.19,-1313.97 c 21.36,74.49 44.28,177.61 7.86,184.87 -21.66,4.32 -11.33,-31.02 -71.1,-74.62 18.85,-78.58 -21.7,-122.31 40.46,-128.19 12.56,-0.99 18.36,18.56 22.78,17.94 z m -12.83,-853.154 c -68.17,18.922 -30.81,8.668 -49.01,13.293 -16.96,4.309 -27.69,38.235 -26.1,47.528 0.59,3.488 11.98,36.23 37.09,41.148 13.91,2.723 44.3,15.477 55.17,19.863 11.15,3.469 12.9,23.352 21.9,25.2 8.67,1.777 14.8,-3.965 21.83,-3.383 11.69,0.965 28.32,35.965 37.17,34.3 47.82,-9.023 48.77,0.348 151.12,57.77 9.58,6.922 60.98,-46.691 80.31,-52.191 79.81,3.39 16.82,67.773 137.28,27.711 34.76,-1.305 72.88,27.73 116.61,20.253 4.71,-0.804 36.27,-21.617 58.41,-27.464 12.25,-3.235 15.34,-22.911 26.8,-30.071 13,-8.113 28.03,0.149 35.96,-2.75 21.52,-7.863 31.33,-13.91 54.93,-22.386 16.64,-5.985 30.99,-30.52 34.34,-37.305 11.55,-23.328 0.7,-50.672 -45.35,-81.949 -128.76,-62.41 -505.06,-109.145 -748.46,-29.567 z m 930.08,649.934 c 0,20.42 7.87,24.87 23.77,40.22 15.9,38.68 -26.18,89.36 19.87,104.7 82.1,27.35 278.86,2.65 335.55,2.65 59.76,0 97.9,15.82 107.05,-14.15 6.89,-22.63 1.7,-82.88 -1.93,-86.37 -11.32,-10.86 -15.3,-51 -29.04,-63.02 -34.55,-30.24 -68.89,-48.18 -86.73,-58.21 29.92,-20.14 -25.32,-90.02 -93.76,-59.84 l -23.5,27.49 c -4.49,41.92 9.23,65.01 -10.82,100.27 -11.67,22.61 -20.65,51.71 -71.68,29.94 -17.77,12.17 -72.12,-26.82 -91.44,-27.02 -39.57,-0.44 -52.94,7.11 -77.34,3.34 z m 64.61,1219.99 c 70.32,16.4 103.61,-15.73 201.27,35.28 81.62,-3.69 243.11,58.61 212.96,111.33 -27.05,35.15 -222.15,250.37 -338.2,316.89 -47.71,35.94 -153.18,95.8 -300.64,152.34 -9.21,1.83 -15.98,-17.08 -19.54,-19.18 -88.12,-1.7 -55.84,-36.78 -75.12,-63.13 -2.5,-1.01 -14.27,-10.06 -18.38,-1.9 -19.34,38.43 -87.32,-3.37 -104.54,-19.97 l -374.24,-70.25 c -77.32,-5.47 -115.36,-27.77 -183.11,35.31 -13.75,-2.45 -29.6,-8.84 -40.2,-13.17 -15.08,-6.15 -27.54,-21.48 -37.22,-25.54 -38.02,-15.96 -35.55,-2.39 -67.75,-12.37 -4.24,-0.89 -27.18,-11.04 -31.75,-25.54 -2.28,-7.25 -24.16,-23.67 -19.37,-31.14 1.05,-1.63 1.67,-5.73 4.74,-6.65 10.98,-3.31 27.36,4.27 33.39,1.31 0.88,-0.43 2.7,-5.45 -3.46,-14.94 -6.25,-9.63 -16.63,-18.77 -21.54,-26.06 -4.32,-6.43 -3.77,-11.69 -1.45,-10.99 3.66,1.12 11.05,-0.84 19.62,0.35 9.7,1.36 24.7,17.17 34.68,21.47 35.71,15.38 38.67,47.47 52.22,51.29 8.03,2.27 22.42,18.48 31.76,10.52 6.75,-5.75 -23.08,-28.15 -20.26,-34.96 8.44,-20.45 37.59,-24.85 45,-12.2 -0.37,-28.22 -8.6,-25.15 -34.44,-13.29 -7.91,3.63 3.89,-22.57 3.51,-24.8 -0.66,-3.86 -6.23,1.26 -54.21,-6.21 -8.88,-1.38 -18.5,-15.24 -25.1,-16.74 -27.12,-6.17 -3.97,21.56 -86.87,2.89 -5.42,-1.22 -7.95,16.92 -13.51,16.47 -16.51,-1.33 -27.64,-1.75 -44,-3.91 -14.97,-1.97 -10.09,-21.79 -25.07,-23.83 -12.4,-1.69 -20.92,10.45 -33.12,8.45 -11.02,-1.8 -15.89,-11.25 -26.63,-13.14 -16.91,-2.96 -32.23,5.01 -47.84,1.15 -17.55,-4.33 6.17,-40.89 -7.5,-47.65 -14.52,-7.19 -12.44,-31.66 -26.97,-35.44 -28.706,-7.45 -31.132,26.87 -54.511,18.47 -92.832,-33.35 -70.566,-93.49 -72.652,-105.17 -1.379,-7.71 -9.926,-27.13 3.906,-27.98 11.051,-0.68 51.61,-4.43 70.082,6.66 14.207,8.53 4.59,29.62 21.137,45.49 41.138,9.99 21.43,10 74.758,27.99 9.81,3.3 26.05,-11.93 36.02,-8.95 6.33,1.89 17.07,0.03 23.61,-0.91 2.67,-0.37 9.36,-72.81 19.46,-72.79 4.24,-1.81 0.02,-20.74 -8.68,-25.03 -8.32,-4.09 3.24,-10.58 5.27,-10.07 2.82,0.7 7.81,-0.85 13.31,10.1 1.25,2.49 5.49,7.23 7.16,13.26 0.83,3.01 9.73,-3.95 10.33,-1.72 0.61,2.25 5.4,0.63 5.85,4.18 -0.87,4.3 -26.16,49.77 -22.72,69.75 1.42,8.29 1.07,14.18 4.43,18.07 7.42,8.57 9.02,-4.59 14.91,-2.81 8.83,-7.81 -0.84,-32.73 8.91,-29.98 2.56,-7.74 11.14,-32.81 13.84,-45.12 2.1,-9.53 -0.89,-101.49 7.2,-80.72 1.28,5.72 20.74,5.06 21.05,9.01 -4.82,7.91 7.94,42.93 18.81,48.58 19.08,-3.13 25.97,-9.73 27.24,3.24 3.4,-1.09 19.01,-14.54 30.2,2 -9.87,20.48 6.22,34.95 12.2,36.53 11.8,3.13 2.88,10.6 18.55,15.72 4.09,1.34 9.51,-9.15 16.21,6.41 3.2,7.44 6.67,10.98 10.59,14.81 3.5,3.42 8.68,-2.81 16.93,2.28 -1.22,3.84 3.76,10.86 10.4,1.88 0.69,-1.52 -4.81,-1.2 -6.92,-6.15 -3.52,-8.25 -8.67,-23.7 -2.17,-20.05 7.45,4.18 13.51,-3.06 17.73,-3.04 2.72,0.02 17.67,-1.37 19.3,1.52 5.07,8.97 -6.74,20.89 -16.42,18.99 -6.07,-1.19 3.55,11.84 8.98,15.18 1.99,1.22 0.28,1.2 1.96,2.14 31.27,17.43 37.18,-19.61 21.67,-27.86 -8.57,-4.55 -10.46,-8.74 -3.15,-16.96 12.1,-3.99 11.48,3.23 25.48,-19.03 3.83,-19.38 -1.38,-29.31 -12.09,-34.07 -14.7,-6.54 -31.35,10.08 -43.97,9.02 -10.8,-0.9 -28.58,18.52 -47.57,11.95 -21.26,-7.34 -44.93,-18.01 -39.31,-18.09 1.64,-0.02 -53.09,-12.3 -45.22,-19.05 5.17,-4.42 -14.08,-35.68 -3.63,-40.57 37.36,-17.45 61.83,-7.29 99.24,-11.1 5.6,-0.56 -30.15,-60.74 -23.6,-58.21 14.36,5.53 34.29,-19.35 55.32,-7.23 14.46,8.34 80.59,-0.32 100.94,15.75 1.92,-3.02 115.78,-16.45 143.08,-6.01 7.85,3 19.58,50.1 2.11,59.49 -2.37,1.28 4.08,129.87 -16.37,133.98 -3.15,0.64 -31.03,-19.99 -37.92,-30.23 -7.81,-11.62 -3.44,-51.76 2.36,-59.95 8.68,-12.27 3.62,-65.55 -0.16,-67.15 -7.21,-3.05 -50.63,5.51 -46.15,13.64 8.15,14.79 11.11,37.72 16.31,54.47 2.99,9.65 -13.08,23.79 -11.21,31.12 4.99,19.54 -10.79,26.95 -4.41,42.55 5.8,14.17 16.92,11.22 19.4,13.64 38.19,37.42 139.44,-33.27 145.35,-34.05 141.1,-90.34 211.24,-224.66 322.99,-332.03 5.7,-12.88 -2.08,-50.93 11.32,-47.97 13.4,2.96 38.68,37.64 79.48,33.66 17.47,-1.1 32.53,-20.69 61.94,-44.18 -4.78,-45.59 -1.3,-72.93 10.08,-47.43 7.01,15.7 23.2,15.98 30.09,5.86 5.78,-8.49 8.27,-0.02 11.23,-20.32 2.17,-14.8 13.45,-29.39 14.72,-45.05 2.49,-30.76 -7.08,-60.56 -3.05,-72.6 2.83,-8.47 30.47,-19.81 37.24,-38.57 6.66,-18.42 9.91,-39.72 21.03,-51.39 16.23,-17.02 36.71,-12.57 40.74,-11.24 2.24,0.74 -4.63,10.37 -9.03,25.62 -2.64,9.17 -0.92,21.75 -5.53,31.75 -3.44,7.47 -9.9,10.21 -13.74,17.54 -1.85,3.52 -15.25,3.1 -17,6.47 -2.68,5.14 2.88,16.54 0.51,20.91 -3.32,6.12 -3.94,13.66 -9.47,19.26 -3.32,3.35 -13.28,5.67 -13.03,7.53 2.99,21.51 -5.29,43.44 3.46,53.85 12.24,8.72 27.03,-7.73 35.88,-15.89 8.56,-16.51 15.87,-24.92 27.9,-27.68 5.04,-1.16 -3.03,-22.55 1.53,-23.41 19.06,-3.57 20.17,10.66 33.24,39.05 7.73,5.01 20.45,2.13 25.59,14.92 3.99,9.96 1.8,30.1 2.4,45.48 0.59,2.34 -10.38,19.75 -25.76,35.67 -7.76,8.05 -10.16,20.09 -15.19,27.24 -5.82,8.26 -17,7.05 -15.46,8.49 -2.05,16.35 5.52,32.34 18.26,34.8 41.76,7.32 56.09,28.91 83.06,37.39 55.12,3.84 52.01,118.49 77.67,116 27.35,-2.65 -90.5,103.81 -62.98,116.4 z m -932.2,-345.45 c 79.23,-62.93 -126.71,-271 -168.39,-303.23 -6.44,-6.99 -33.21,-13.88 -18.6,-97.78 5.92,-34.05 19.88,-107.72 5.44,-129.77 -58.29,-124.43 -64.79,-82.81 -63.23,-212.47 l -19.36,-40.13 -24.71,-51.69 c -9.28,-29.69 -40.69,-34.69 -63.7,-31.18 -15.8,2.41 -26.98,-17.16 -41.34,-7.51 -25.6,17.2 -62.64,78.06 -81.07,105.3 -28.37,34.35 -42.758,105.28 -84.945,150.65 -19.122,97.14 14.546,115.57 -16.672,201.76 -57.258,61.76 -69.012,124.17 -42.942,188.33 -16.222,42.72 -37.14,23.24 -54.66,31.11 -17.519,7.87 -31.648,43.09 -42.394,33.03 -16.684,-8.25 -77.075,-37.67 -134.711,-14.98 -27.387,10.79 -40.008,40.15 -47.239,49.07 -43.117,53.2 -16.3,229.16 -7.476,234.72 28.828,18.14 71.246,192.81 141.551,190.46 34.468,-1.16 59.316,97.64 99.683,88.55 28.762,2.14 19.953,26.23 38.731,14.38 23.168,-9.62 137.624,2.84 154.654,-4.77 41.64,-36.4 -22.26,-38.94 -16.92,-64.69 4.18,-20.1 27.93,-22.71 36.46,-43.43 30.17,-73.29 228.52,-42.28 268.18,-67 172.6,-107.61 196.29,-226.55 183.66,-218.73 z m 1045.79,-0.5 c 8.46,29.52 -3.79,56.39 -18.22,59.27 -8.58,1.71 -13.51,-13.11 -15.04,-43.55 4.39,-18.33 -3.39,-44.24 27.53,-46.75 16.51,-1.34 35.87,-7.3 39.92,-1.72 6.93,9.56 -35.17,32.89 -34.19,32.75" /><path
         id="path22"
         style="fill:#632124;fill-opacity:1;fill-rule:evenodd;stroke:none"
         d="m 1795.7,3103.66 c 716.21,0 1300.19,-584.08 1300.19,-1300.21 0,-716.03 -583.98,-1300.141 -1300.19,-1300.141 -716,0 -1300.055,584.111 -1300.055,1300.141 0,716.13 584.055,1300.21 1300.055,1300.21 z m 0,5.37 c 719.15,0 1305.64,-586.49 1305.64,-1305.58 0,-719.05 -586.49,-1305.481 -1305.64,-1305.481 -719.07,0 -1305.563,586.431 -1305.563,1305.481 0,719.09 586.493,1305.58 1305.563,1305.58" /><path
         id="path24"
         style="fill:#632124;fill-opacity:1;fill-rule:evenodd;stroke:none"
         d="M 2017.64,1322.81 V 595.25 c 451.7,101.738 746.57,352.926 911.7,727.56 h -911.7 z M 697.012,2343.8 c 204.965,376.29 499.028,619.65 916.538,676.16 V 2343.8 H 697.012 Z M 319.691,1101.47 H 777.395 C 598.293,1407.48 543.91,1695.59 574.641,1971.62 H 1613.55 V 177.961 C 2493.66,97.3594 3331.09,698.285 3433.21,1714.04 H 2017.64 v 689.34 h 1313.45 c -63.96,118.94 -132.3,264.35 -236.98,385.89 H 2017.64 V 3436.7 C 596.496,3529.25 -154.691,2235.86 319.691,1101.47 Z m 1621.859,1613.78 -0.22,655.42 C 579.258,3399.25 -42.0547,2110.5 373.574,1176.79 l 280.371,-0.75 C 534.508,1427.42 450.664,1695.76 517.688,2048.9 H 1690.14 V 246.395 c 801.36,-25.641 1535,495.789 1657.21,1393.325 h -1405.8 v 840.41 l 1262.99,-0.08 c -51.09,99.99 -85.34,154.54 -146.88,235.2 z M 579.84,2274.14 h 1110.3 V 3109 C 1159.72,3042.39 822.867,2789.6 579.84,2274.14 Z M 1941.55,1398.57 H 3041.42 C 2813.55,821.488 2423.18,573.512 1941.55,510.191 v 888.379" /><path
         id="path26"
         style="fill:#f47216;fill-opacity:1;fill-rule:evenodd;stroke:none"
         d="m 1941.55,2715.25 -0.22,655.42 C 579.258,3399.25 -42.0547,2110.5 373.574,1176.79 l 280.371,-0.75 C 534.508,1427.42 450.664,1695.76 517.688,2048.9 H 1690.14 V 246.395 c 801.36,-25.641 1535,495.789 1657.21,1393.325 h -1405.8 v 840.41 l 1262.99,-0.08 c -51.09,99.99 -85.34,154.54 -146.88,235.2 z m 0,-1316.68 H 3041.42 C 2813.55,821.488 2423.18,573.512 1941.55,510.191 Z M 579.84,2274.14 h 1110.3 V 3109 C 1159.72,3042.39 822.867,2789.6 579.84,2274.14" /><path
         id="path28"
         style="fill:#f47216;fill-opacity:1;fill-rule:evenodd;stroke:none"
         d="m 3025.33,3163.27 -71.4,-76.57 26.64,-24.83 c 30.51,-28.46 57.7,-29.81 81.73,-4.05 23.58,25.29 20.18,52.16 -10.34,80.62 z m -337.67,-176.21 314.84,337.07 c 50.49,-39.36 98.74,-80.98 143.69,-125.89 26.68,-26.66 39.99,-57.95 48.31,-85.42 8.32,-27.47 8.85,-53.76 1.51,-78.63 -7.33,-24.87 -19.91,-46.78 -37.72,-65.88 -18.04,-19.35 -39.24,-33.66 -63.61,-42.79 -24.38,-9.13 -50.63,-10.43 -78.7,-3.97 -28.06,6.45 -55.84,22.43 -83.34,48.08 l -47.01,43.83 -101.29,-106.97 c -29.77,28.5 -62.29,55.17 -96.68,80.57" /><path
         id="path30"
         style="fill:#f47216;fill-opacity:1;fill-rule:evenodd;stroke:none"
         d="m 2442.73,3136.83 111.12,81.38 3.28,373.4 c 46.43,-20.43 90.51,-41.65 132.64,-63.52 l -10.66,-219.73 156.22,136.76 c 37.97,-23.99 74.37,-49.16 109.47,-75.3 L 2561.48,3072.2 c -39.59,24 -79.17,45.25 -118.75,64.63" /><path
         id="path32"
         style="fill:#f47216;fill-opacity:1;fill-rule:evenodd;stroke:none"
         d="m 2166.76,3238.48 94.78,330.82 -96.16,27.57 31.26,108.52 c 101.9,-21.78 207.67,-52.03 313.9,-93.84 l -30.11,-105.02 -96.37,27.64 -95.36,-332.55 c -39.16,14.52 -79.72,26.95 -121.94,36.86" /><path
         id="path34"
         style="fill:#632124;fill-opacity:1;fill-rule:evenodd;stroke:none"
         d="M 3274.77,2755.39 C 3451.55,2482.07 3554.3,2156.84 3554.3,1808.34 3554.3,844.836 2768.44,58.8555 1804.88,58.8555 841.316,58.8555 55.4492,844.836 55.4492,1808.34 c 0,963.64 785.8668,1749.45 1749.4308,1749.45 63.4,0 125.99,-3.34 187.68,-10.01 70.45,-49.46 90.72,91.56 3.87,54.91 -63.04,6.69 -126.91,10.15 -191.55,10.15 C 810.977,3612.84 0.460938,2802.19 0.460938,1808.34 0.460938,814.488 810.977,3.89063 1804.88,3.89063 c 993.9,0 1804.41,810.59737 1804.41,1804.44937 0,358.54 -105.47,693.34 -287.03,974.71 0.61,87.71 -125.05,21.79 -47.49,-27.66" /></g></g></svg>